<mxfile host="Electron" agent="Mozilla/5.0 (Macintosh; Intel Mac OS X 10_15_7) AppleWebKit/537.36 (KHTML, like Gecko) draw.io/26.0.16 Chrome/132.0.6834.196 Electron/34.2.0 Safari/537.36" version="26.0.16">
  <diagram name="Page-1" id="eQXvpDgo32Qo0YBUE5kd">
    <mxGraphModel dx="954" dy="727" grid="0" gridSize="10" guides="1" tooltips="1" connect="1" arrows="1" fold="1" page="1" pageScale="1" pageWidth="827" pageHeight="1169" math="0" shadow="0">
      <root>
        <mxCell id="0" />
        <mxCell id="1" parent="0" />
        <mxCell id="8pqZ917RF1C_p-31OUPB-1" value="" style="shape=image;aspect=fixed;image=data:image/png,iVBORw0KGgoAAAANSUhEUgAAAgAAAAIACAYAAAD0eNT6AAAACXBIWXMAAAsTAAALEwEAmpwYAAAgAElEQVR4nO29CXRcR5m37xBg2IaBgZnvA2Y+htk+mGGYmT/wwQwzE4h3973yFoXE2ciekJAQApiEJC07+x6Tfd+dxEnIvpDNWY1t3e66kuXdcle1JK+SLctKQjbX/1THDt5kdavv7bdv9/Oc856TY8dSd9Wvfu9769YybBgAAAAAAAAAAAAAAAAAAAAAAAAAAAAAAAAAAAAAAAAAAAAAAAAAAAAAAAAAAAAAAAAAAAAAAAAAAAAAAAAAAAAAAAAAAAAAAAAAAAAAAAAAAAAAAAAAAAAAAAAAAAAAAAAAAAAAAAAAAAAAAAAAAAAAAAAAAAAAAAAAAAAAAAAAANQEjW1rP+Ur889+1oz0QvNDPzTHe8r82lf6Uj/Ut3ihfthX+mVfmcAP9TJfmfZChHq9r8wGF16o3/VDYz+IrX/+wd8rs+aP/84oPzRzvNA86yvzgBeaO73QXO+F5kIv1GlP6RMawvwBXosensqu/NeUyn9pn1zuY9LtBAAAkCiOCYKPjG/J/0uDMo1eqH/uKfMbX+lH/dCEhQS9feKu5lC631N6hR/qF31l7vCUPs/L5n/sh9pzhcKEeZ2fk25rAACAipO29kN+Jv/3KZWb6Cl9hhfq+7xQt3mheVs8eVesSHCzDXru1gLhDF+Z/RvC3L+PDFd/EkkCAEBN0LB48Z96ofkvX5mpnjKP+Ur3iCfgKg4vNKvebyfT5GZD3GuPYdbuJd2PAAAAe2RiuOIvfaUP9pW5sfBkr/R70kk16eEp3e3WInhKn9ugdCrVaj6LDAEAQJR9ZtsP+0p/zw/1OV6om0n4FSkI3nPFlR/q61KhOTTVav6WYQAAABVZke9lc1O80MzyQrNR+gmZKBQFKzylr/GzZrx77cIwAACASGick/+4F+rJ7yd9/QZJt3oLD7eg0lP6Jb/FnO52VjAEAACg5BX7qWxunB+auzxl+qQTGzHUNnDnIujzGzLmWwwBAAAYkHFtuf9dOGQnNJqkW1uFhxeanDs8iWIAAAA+INVqvlnYm15Pe/LrOxa57Zl+a/v/YhgAANQZjW1tH20Ic0f4yiyugoREyK0ZeMQtIHS7OqQ1CQAAMeJOnWtoMSd7SudJvBQe2xUDq9whRBxZDABQY4xqy//51stsukn8JP4BNaB0v6/0teMyua9JaxYAAMrAC7o+4YfmNC80vSR+En/RGlB6ix+aJxrCju8wAAEAEraV7/0b9kyOxE/iL3OtwLMUAgAACcCdG//+kbEkPtogUg084WXz35bWNwAA7IQf6q84kybpUfjEunvA3VoY6q8wAAEAhHFbuLau7N9M8if5V2YLoX7DC80FY+Yu+7S0/gEA6hIvNP/lK72AxE/iF9s+mDWHDbN2L+mxAABQN5f0+KG5autqbd510waiGvCUeX7CAvN30uMCAKBkjgmCj7i9z37WjHRPNO5MfC80F3qhuf790Pe5G/F8ZW70Qn25r8xP/VB7EgenpML81z2lW0h6FD7VpIHCbZHKTG2cZfeOQ/de0PV5N+Y8ZU7ZOgZv3HpL5X1/HKfmQjd2U6E5tCFrRrgx7cZ2HJ8HABKK15r7qh/qn/hK3+6HJhzyOfjuCbxwnK6+xW/JH+iezOPc2ucM1lPmLWmzJ2iDPRQCza5IjeQq6mxuihfqWz1llpQxO+HGi/JCfZuv9Iljw85/jGZEAkAysHavVIv5b/eUEOdtd+7AHfc7xmf1f0b58ccv6PxrP9QvknhJvImZDQjN8UPRuq/097zQ3BDz4VXaD/V1bg0N6xcAavkIXDedr/SKipug0nO9Fj283O/Q0JL/H1+Z1dKmTtAGQygEHi72NVnh9Vuo51deZ3qZOy1zvMp9ptyxCgBVQKrVfNZTZrofmk3VsEBqqCepeaH5mR/qd6S/A0EbDF3/Ou9m3wbSuN+S+64XmhekNeaFZqO7L6MxaP+zsswHAORwR+D6oV4vbSg7hNJb3KuBxra1nyrmO+yTy32s8M5S+nMTtEEkGtDvuPUrO99T4c4S8JR+r6p0pswGX5ljYjMoAIiehoz5oqf0U+IGsodwryIK7x0Hed/PKn/5viLiaAN9nVuVv/W1Vns1t7EXmscnBvoLeDVAlePOKPdC3SVtGkUZy/tPPGfvbvGRr8w/uylT6c9I0AYx6r+j6p76BwqlO1Kt5psyrgYAg5Jq0fttXXUsbxglmYt5YGS4+pPbvkeDyv2Aa3uroF8I2mD7gqXgLblJWDFAleGp/IQh7+Gvjgi9oP3/eKGe7CvzZhV8HoI2QAM7acB5TEOLaZD2OwDYiqfMqFo4FMdTuQ0c6SvfDwRtsEcNKPNmFNt6AaBMti6U68a0h27ak1ry9uQlXfaC9jX2zo719rk1G2xLzya7vLfP5jdttus299vXX3/d9mzut6v6NtuVvX12wYZN9rX1G+19nd12Rm6tnbp0lT2wNU/yjDl5TlmQL7S1a/NZnd2FPnB94frE9U3P1r5yfeb6zvWh68tn12ywd3SsL/TxyYu7Cn3OmCmjL5TZMF7l/gYDBxDCrSL2QvMaRlaaeY1vMfbUpavsLfl1dl53r924NWmUG/2vv24Xb+yzD3R126blq+3+FARlJ1nXhtNWrC606ZKNfYU2jqKvXJ/PW99rbzbrClpwmmAcldoGel5jW9tHSQAAArjDOjCt4g3r+EWd9vaO9Vb39kWSRAaL3v5++8q6jfbc9jV2Ak+cJRVopy1bZZ9es8FuiKg4Gyy6Nm0uFBknLe6iEChhTHlKn4H5A1SYwpn4SvdTAOzZoCa25O2lK9faRRs2VSSRDBSr+/rtvZ3d9pAFHSSYAfrqkLaOQhu5tpLsq4UbNtlLV1K0FVUAhPqNcZmVXyYBAFQQd/UnyX9gY3LveK/IrS28B5ZMJjvHpv7+wpPt0Ys6KQS29tURCzsLT99RvYqJKkxvn71Gr7OTeZUzmFbvxvwBKoS7xjMxB4hUOBpCYy9sX1OY0pVOIIMVAm4BYWMdvxpw7/fv7+y2ff3Vlfh3js5NmwuLB6Xbq1rDedGEBebvSAAAFcAPzVXSg74a45hFnXbu+l7xhFFKuELl4jpMLm6RZLXNzgwWzet7C+tIpNuuKkOZGZg/QMyMmbvs057Sm8UHfJU99d+aX1/1T5J7ilfXbbQH1cH6gIMXdNg5CSvSdp65cTsHGqqgLaspPGX6GhYv/lMSAECMpJQ+SHqwV1MctCCf6ISyfazu22xPX7ZKvE3jCrd/302nS7dzFNHc3VtYtCjdptUUDWH+AMwfIEbcufnSA72aEkpXX20klG2xuf/1wmxGLT1huu9ye3594btJt2/Ur2+m1nDBVnIofS/mDxAT++RyH6v01j/v1TY77uEX7Ni7HrLjHnzGes/NdwNd3GzOXrHGbkzwlP9g4XYK1MLZARNajH1idY94e8b5SuD8aljDoXRhbLoxWhirD79QGLuVfg3AwUAAMeEr/b2KDOb5y+yYy6+zIw493O47fLjdd999d4jhEybZUWec/X4xIGB2V+l1kZ0IV83hDhHaL8Fb0Nxnd2sbpNsx7nBavN6sE2lj79l5hbE4YsKkXcapG7sjDjuiMJbdmK7E52kIO75DAgCIAS80P4t7AI+77X47fMLEXc1kNzF85Eg7uul86wftFTO82/LrxQ2/kpHt7rWNCSwC3PZG1V0bazOKDXe0dMXaOJuzo9PnFcZgMWPVFQhjb3+gAp9N/wTzB4gBT+mZcQ7e0eddttsn/sFi5JHHWu+1+Kcbr9RrxU1eIuZ39ybq8hp3+mKtLMwsNdzBQRVpZ5UrPN2XNFaHD7ejz7887s92F+YPEAOe0i1xDdwxl15TcuLfoQg44phYZwLce9Z6mPYfKNxtdklYGOg+o7tNUbq9pMJp9LwKrQlIPflq0TMA20fhlUB8n0th/gAx4IWmN45BO+7B3w3pyX/nKLwOiGm1v1tsJW3u0jGrq1s8wQ8W7khf6XaSDncJ1C+XVmZ3QGHWrtSxOnyETf322Xg+kzIbMH+AiBmvcp+JZ8BqO/KIo8tO/oUYMdJ6z0a7MNAdjlPtx/pWMtzuB+kkP1Ccu2KNePtUS6zq21yZi5+Cdjv8gINKHqsjDjsytt087rAyEgBAhIxvyf9LHIN13Kynokn+WyP12IuRTicn7WjfuGP95n575MLqO472qIWdtrvKLvOphrUb7mrjuNs+9eAzQxqr4x74XTyfSZl/xvwBImR8Vv9nHIN19FnnRpb8R554SqSfzR2II23i1RgtPZuq6owAt+hvQY/sdcvVGjdVaHvgqJ/+ompe2fktue9i/gAR0pA1I+IYrCMO+VEkyX/4uJT1Xgoj+1zHLepM9Nn+cccNQvvOdxfubHzp9qjWcGtXjq3AjI33QsbuO3p0aa8BDvlRTJ9H74v5A0SIFxo/jsE63B8fSQEw9oa7Iv1cbvpU2ryrOTZs7rdHVMGrgMMXdtoepv4HvUWwEjs4Rp9zSWlFe8P4uAoAD/MHiBBP5SfEMVj3HTWq/Kn/o38c6YKii9pZTFZMEfDC2g3iBcDLdXDSXxRRkeOC5y21wxsmFD92R42K5XM4r8L8ASLETavFMViHT9qvvALAbSl68tXIPs/k1jyr/ktILG6LpFTydzcXSifWpETHps12cgXWbYy57NriXwHst38sn6FB5X6A+QNESKrVfDOOweqe3sspAEadeU6kn+dqzfvkUhKLe1UiVQAEvKYpqa9+k1sbf7/MX1b0LMDIY34cTwEQ5v4d8weIkAkLzN9JPzHsEp4f6RHAbmW77u0Tf1pLWvxcYBbg1KU8/ZfaT6a3r7BjIu6+GX3J1UWN3zGXXx/L7x+vcn+D+QNESOOc/Mf9UL8T9WBNPTe/MI0/lAJgzNW3RvpZLltZn2f9lxvuxr1KFwD1etZ/uXHJyvjXAnhzl9rhXsPgh3Y9H0T/u0Pztru2HPMHiBhf6QVxGMao09IlJ//hP5xi/ezKSD/Hog3sJR/q+fNHL6rcjoBjF3WKJ9KkxsINmyrSR6MvnLHnV3e/nh7X7w4xfoAY8JW+PY5Bm3q5Zff3ie8h3LXBUX6GH5NUykost3esr1gBcGcHBzSV01dO63H3kRvT+w5wUdDwCZOs98qCmH63vgXzB4gBd9d2XIYx7pEX7PDRY4pbPXzwYZGfI+4uupF+OktyuLUTldhr7n5HjnUaZfXVPZ2VudRp1M9P3zX5jx4T6XHdO4en9AmYP0AMjMus/LKv9Ja4Bm/qiVeK2hY47p7HIv297rx0LvxJxmJAt+1QuthJenRu2lyROwLGPfzCLk/+qUdnx/c7ld4yfkHnX2P+ADHhKT03TtPwXm61o05vGnBh4Mgjj438d7KiPJrEcm8FnixndTJTE0Vf/XRJV+x95cLd+ucW/I3+9fQYp/23ekdoXsX4AWLED3OnVsI43ArhMZdfV9grXJgVGDnSDh8/waYeei7y33VLnr3/USQVdyFP3LpgoWY0xdqNFbrLwR3SFcdq/92GMj/F/AFiZMK8zs95yvRVZEBXKOaVcaBMf3+/nTNnjr3sssvskUceaSdNmmRHjRpl999/f3vSSSfZO+64wy5fvlx82rcSsbn/dXtAa3z7zA9szRd2HAz183V3d9vHHnvMnnnmmfbQQw+148aNK4T7b/dnjz/+eOH/kW7HSoTbRik97qIMT+nNXtD1ecwfIGa80FwoPeCjikktebtxiJfJzJ071x577LGDL1ocMcKef/75tqOjQ9z4447pK1bH1lfnrBjaHQ19fX125syZdsKEwU+omzhxor3nnnvs5s2bxdsy7sucnPalx19kofT5GD9ABfBb2/+XH+rXxQd9BHHykq4hGahLEsOHDy9p6+J+++1ns9msuPnHGTNjXAfgVq+X+nncE/3UqVNLPmfi1FNPtWvX1vbBUCctrsw6gPhDvz4xXPGXmD9AhfCUPkN+4JcfFw7h5r9rrx368cVjx46t6SJgdow3BL60dmPJyf+oo44acl+5f9vT0yPepom+IXBbqPh+theaX2H8ABVkn9n2w74ygXQCr/ShMk8//XTJT/67mwno7KzN0+yWbuyLra+Wl7j//4wzziirn1ycddZZ4m0aV9yer9zhTbElf2WyxwTBRzB/gAozTuX+zZ29LW0C5cRzazYUbZjuaXDy5MllJxUXF1xwgXgCiCN6+/tj2WM+ocXYTf3Fr9V46aWXIuknF6+++qp4u8YRz6zZkPTk/5bf2vENjB9AiIYwd4S0EZQTLT3Fn/9/5513RpZU3MLAFStWiCeBOOJHbR2R99PhC0ubMTnmmGMi6yu30FO6TeOIsCfZOwE8ZY7F+AGE8ZW+VNoMKjGtXM775N2FKyikk0AccVwMZ82XcleDK6yi7CcX7e3t4u0adSyL8XVN7Mk/NBdK+x4ADBs2LG3th3xl7pc2haFEx6bitnt1dXWV/e5/53DnBEgngTjilBhOmSvltMb77rsv8gJg1qxZ4u0adeQ3bRYff0MKpe91noP5AlTVosB4bguMM7qLPAMgk8lEnlQOOOAA8SQQR5y+LPo7AX69rPgC4De/+U3kfXXllVeKt2vUsX5zv/j4KzW8UN/aOMvuLe13ALC7mYDQXCVtEqWEO72uGLOcPXt25Ell9OjR4kkgjjh7RfTby9zPLPb3T58+PfK+cj9Tul2jjr7+18XHX0mhzIxh1u6F8QJUManQHOqF+g1xwygi3IloxZ76F3VScccGSyeBOOLMZdGfBnjW8tVF//5LL7008r5yRz1Lt2vU0ZOUGQBl/tDQYk6W9jUAKJJUq/mmp8xKcfMYJFb1FbcGwJ3nH3VScYsKpZNAHPGLGK4F/mUJawBuvfXWyPvqtttuE2/XqMNdgZ2A5N/eEOb+HeMFSBiNQfufeaG50gv1u+JGMkCsLHIXgLv0x13wE2VSmTFjhngSiCNOiGEXwE8WF39k8/z58yMvAIIgEG/XqGN5Fe8CKHiGMjPGzF32aWkfA4AycBW8H+p50qayu1i4ofhzAC6++OJIk8q8efPEk0AcceTC6AuAo0vYBugu8nGX+kT5qsYVgNLtGnUs2LCpOpO/MtmUyv8/TBeglhYItuQP9EOzSPLc8J3jtfXFny/v9oK7q36jSCrHHXdcTSYVd13vfjFcCdxY4lXAUR7adPfdd4u3axzxyrqN1ZX4Q93mK7M/W/wAahQ3uL1sboofGiVtOC7uL/GGuSuuuCKSUwCbm5vFE0AcYXr7xM9scLFhwwY7ZcqUsvvq4IMPths3lnYJUVJiVld8NzeWFMpkGsL8ASR+gDqiIez4jqfMzZJXC/8mV9qVr5s2bbInn3wyT5QDtM/c9fEdLzu/u7ekvlqyZIlNpVJD7iv3bxctWiSeqOOKy3NrBZO+7veVudHL5r8t7UMAIIhb6OOF5odeqO/zsmZzJY1oagmry7fF6tWr7YknnlhyQnEnCd5www3ixh9n/DbGp8qHV5V+Na/bvtnQ0FByX40fP77wb6XbM85wOyuEkn9Pw+LFf4rpAsAOjA21V0kzmrKgtHfL26K3t7fwOqDYNQHuCuBnnnlG3PST/FQ5o8TZmu23cJZSsLkjmmv1oqZt4TR/YAxrNYqNieGKv8T6AGAHfGUurrQZLd5Y2j3zOyeXSy65xDY2Nu72id/dJHfXXXcV3klLm34lwq3Wj6ufjinxRsCd44UXXrCnnXaaHTt27C595f7s9NNPty+++KJ4G1Yi3O4XqeTvwsvm98H6AGAH/NCElTajB7pKWwi4u3Ar+l0x4Lb2uUSTzWbtqlWlv15IclTicplSFgIOFK4Yc+/2X3nllUK4/66XAq1aFgCmlD4a6wOAD/CCrs97Sr9XaTOatqL4Y2aJgdvgydUbYu+r362pr0QdV7ijlSULAD80F2F9APABbiuQhBnt35q3G2twT36l4/z26C8B2jkubC/+UiBi922wcXN/4VwFyQLAC/XDWB8AfIDkTYLP82RZVsJ01yrHcQDQzuESl7vEhuQ+9L56Zk38MzWDFwBmIdYHAB/gKxNIGVJTCbfNEbu2wRMVmP7fFk9TrFXdbY0lhzJvcrUvABTwgq5P+KF+R8qQJrQUfzMgsWsbuPMUKtVXpy+rr8WVUcbqvs0FrYsXAG4WIOj6PPYHAMNSKvd9aUO6t8RjgYk/3irXUMF+cr+rvYytm/UcMzur5PhfF60d38D6AMBN/0+VNqSDF3QUFkhJm3TS4tKV8S/+2zkuXzm0Q4HqOdxC10PaOuQT/weRH4P1AcAwdwywvCGZwlG20kadtMt/JrZUfkX5hJa81b3MApTSV+7iK+nxtWPoI7E+ABhW1DXBFYgftXXYTWwJLDqpuMuUpPrqGr1OvABKSvT199vDF3ZWWwFwJtYHUOc0zsl/3Av1u/KG9H7cx1qAopLKio19dpLA0/+2cDMPK5gFKKqv7qm6p//CToAZ0t4DAMK4K0HFzWi7aGzJR3LkbK3HaVK3yW0X7Ago7ohm6YN/dhdeqG+T9h4AEMZT+cOlzWjnOI8T5/aYVJ6tgsNktsXzazkeeE99dfaKyi/SLC70Q9LeAwDCeKG5QN6Mdo1X120Uf8quxli7ud8eWkWryd26jfXs3thtX728bqN4/+whZkt7DwAI4yvzQBWY0S5x0IK87eRVwC73yE9fUQUnye0U6eWrC59Nujiqtqn/KQuqb+p/W3jKZKW9BwDq8ArgYmPqslV2c7+8mVdLuAWS0n0yUDzIFs4P+qmv/3X7yypYozFIAbBS2nsAQBJr9/KU6ZM2oz3Frfn14om3GiLs6RXZ819suB0JrT2bxNupGuIms068PwYtAELdhfkC1DETA/0FaSMq5ujZJ1b3iJu6ZKzs7bOHLKie9/57em3jjiaWbi/JcJclVfJo5qGHXiftPwAgSLVtARwoxrcYO7tOV5uv7uu3xyyqtkNkBo6jFnbarjq92OmVdRur5rKfwcILzUbMF6COaWgxDdJGVGy4++6z3b3iJl/J6N7cb3+yuEu87UuNkxZ3FT67dPtVMjLdvXZyFe73HzCU7pf2HwAQxAvNceJGVEK4A1XmrK+PIsBdj5zE5L8tfryos252cczr7i0cYCXd5qWEp8xbmC9AHeMr0yRtRKWGWwj3zJrafh2Q6+2LfNrfe3WBTT0zz6Yee8mOu/8pO/auhwrh/tv9mfs79/9E+TuPXNhZOLJYuj3jjN+t2VC4HEl6XJQcSm+R9h8AEMQLzfXiRjSEcIusZnV11+Tec7fa312NXE77pJ56zY75zY121K/SduQRR9vhnm/33Xff4sLz7YjDjy78W/cz3M8q57O4xYu1uDvAae/ezu6ELPjbNTyl38N8AeoYX5n7pY2onJi2YrVdVyPvml1CeaCre2hb/ZS24+593I6aeqYdMWFS8cm+yHA/c9Qvzyz8Dve7Sv18bmGcuxCnVgo2t77h3PZqPeK3yAIgNG9L+w8ACOKF+hlpIyo33DWrKuGLAwsJZShnxs9basdcfr0dsf+BkSf9AYuB/Q+0Y664ofC7S/28TctXF44ylm7vcmJBz6bCTgdp3ZcdyvwB8wWoY/xQzxc3ogjCvYO9wayzPQlMLu5in6Gc7T/u7kfs8En7VSzx7xzDJ0y0Y2+cWfKMwGFtHfa5BK7hcNq6Xq9L5vv+3YQX6jek/QcABPGVXiptRFGGS6TuIBbpZFFMuMVxZywr/bhY75UFduSxJ4gl/p1j5LEnWu/VtpK/x9Slq+yyhCwQdPv73UyTtL4jLQCU3oz5AtQxXmhWSRtRHOGSS3OVvhbQvX32Sr12SO/6Uy9k7PDJjeJJf5fZgP32t97s7JCOD75Kr7Omt69qt/e5+yik9RxTbJL2HwAQxFe6pwqMKLY4demqwtNbf5Vs7btGryskvaF8F2/eUjvigCniyX6gGHHgQdafv2xI381Nq1/cvsauqJJCYN763oJ2pPUbayizAfMFqGOq/SKgqMJN395o1tn2Ck85b9zcb59fs6Gw+M0dZ1zOdxg17ULxJD9YjD774rK+o9tS94ulq+yjq3psT39l13O4WQi3UyFJxy6XE57S3dL+AwCC+Mq8KW1ElYxtCcbt316wYVMsMwMukTy1eoM9v31N4fjiSD5783K77+gx4gl+0FcBY8dZr3l5JN/Ztd0F7WsKbZmP4URBd820W9HvtOCe9pO6n3/owWVAAHWNF+p35Y1ILg5ozdvpK1bbmZ3dhcuGlm7ss71FPnn2b32fP3d9r/1tV7e9fOVae3RMT4/jHvydeHIvNlK/fTaWNnBP5pfn1hba2rW5K7SKLeBcn7q+dX3s+tr1uet7af2JhjKrpf0HAAQRN6EqDDdV714ZHL+o056ypMuetmxVYY/+mctW218uXVU4n9/tA4/s6b6IGHvXw+KJvdhw2xMr1S6uD1xfuD5xfeP6yPWV6zPXd64Pf9TWUfbrl1oML9RdmC9AHSNtQkRxbTDxydniib3YmPTUS/RrErStdIe0/wCAIOImRAzYBpPVSntRdrYNsjfat5qn2YMbU+LJfbA4ZP9U4bO6z+w+u/sO9HGV6lyZdswXoI4RNyFilzY4XC2yD2fvt/3BedYGTR/E8zf9WDzBDxazbz5hh8/svoP7Lu470ddVpndlFkv7DwAIIm5CxAdt8KNwsX06M9O+E0zfIYluHxdPrd5zAC497aABP7f7Tu67ue9In1eH7j2lWzFfgDpG2oQIYyeGOXtD9in7RuacARPotnivOW0vqsIi4JJfTSl8tsE+/x+Cc+zM7MO8GqgG7SsTSPsPAAgibkJ1Hieq0OYyvxk0ce4cj199rB2fGiWe+N1nePLa40r+/B2Zy+1PVelHBxPRtYGnzO8xX4A6BkOVSyo3Z5+wb+9hun+w2Pji6YXZgOHDK5/4RwwfXngd0fvSr4f8+d13d22ABmX05yn9krT/AIAgmG/ljXdCmLNPZu8dcuLcObpfON3ec8mR9ocTx8JQjDUAACAASURBVMae+Cc3jLE3TD/Mrn72V5F9/ucydxdeg6DFCmtRmecwX4A6BtOtrOk2hitsa+a6yJLnDgvt5qXt3LtOslenD7FHHOhHlvTdz7omfaidd/dJhd8Rx2d3beLaBj1WtAB4Utp/AEAQDLdyhjs5XBlb8h9oZmD+3SfZBy4/2l5++kH2Z0dPskcf3GAP2m9c4d39qJHDC+H+2/2Z+zv3/7j/98Erji782+4XTqvY512YudY2hu0UARXSo6f0I5gvQB1DAVAZsx0fatucualiyTSp4drItRW6rMgMwP3S/gMAgmC0lSkA7s/+Vjy5JiVmZR+iAKjMDMBMzBegjqEAiN9op6tX7ZYqSKxJCddWrs3QZswFQKhvk/YfABAEk43XZPdX7bY7uEg8qSYtNmQutD9kUWDMBYC5HvMFqGMoAOI12Uezs8STaVLjkcz9zALEWwBcKe0/ACAIBUB8BnuUWmjfLeOgn3oP13auDdFoTBpV+lLMF6COwVzjKwCeyNwnnkSTHo9n7qUAiGsGQOnzpP0HAAShAIjHXKeoZYWLb6QTaNLDtaFrS3QaxwyAacJ8AeoYjDWeAmBG9jnx5FkrMUM9RwEQh05bzOnS/gMAglAAxFMAcOhPdAWAa0t0GsMrgFD/HPMFqGMw1uiN1V1s81bmbPEn51oJ15ZcFhRHoap/Iu0/ACAIBUD0xnqyUuJJs9bipDBkFiDqGQBljsV8AeoYCoDoCwD3zlo6YdZaXME6gOhfAaj84dL+AwCCUABEb6z3Zh8ST5i1Fq5N0WrEBUA2NwXzBahjMNXoC4DHs+z/j7oAeCx7HwVAxDpNtej9pP0HAAShAIi+AJiduVP8ibnW4oXsnRQAEeu0ocU0YL4AdQwFQPQFwIuZO8QTZq3F7MwdFABRzwCE+dHS/gMAglAARF8APJ25Rzxh1lo8meVI4MhnAFTuB5gvQB1DARB9AXAfiwAjLwBYBBi9Tn2lvyftPwAgCAVA9MZ6efZ58SfmWotL1WxeAUQ9A5Ax38J8AeoYCoDoC4BTwox4wqy1+KnKUgBErdXWjm9I+w8ACEIBEH0BMD7UdlNwgXjSrJXoC84vtClajVanXmvuq5gvQB2DqcYTbtuadOKslXg2czfJPxad6q9I+w8ACEIBEE8BcHb2FfHEWSsxTb1GARCDRlMq/yXMF6COoQCIpwBoCLXtzFwmnjyTHvngikJbotPoNTomu+ovpP0HAATBWOOL6epV8QSa9GjKziH5x6TPxqD9zzBfgDqGAiDeeC5zt3gSTWo8m+Xdf5za9IKuT0j7DwAIQgEQbwGwX9hu2zLXiiTQLeoC+86C6+xbS2baN1c8bl/XL9v+jvl2c2fW9nW12E2rl9i+1Uvs5q6Wwp+5v3s9N9u+ufxR+9biu+w7C661W7Lninz2BZnr7ORwJU//MWpzzLJlf4L5AtQxFADxx/6q3QbZG2NOmtMKCfvN5Y/Y/o55tndtzm7YsCGC6LGb1rbbfvOa/cPyh+y7rVfGnvybMzfZxnAFyT9mXTbOsntL+w8ACEIBUJlwC9luyT5h3wyie6Lekj2v8KTukvPG9Z0RJfzBo3edsa/rl+zbi263WzJnR/Z93sicY2/OPsmivwppcpi1e2G+AHUMBUBl47Bwsb0/+1vbO8SDgraoC+1bS++1mzsCu7FnfcWS/kCxsWet7c/PLRQiW7LnD+k7ubZwbXJouISn/grp0Av1u9LeAwDCUADIxIQwZ6eq+XZm9mH7WvZWqzMzConwzeAcuyVospuD8+za4BK7PHNlYSHhM21PF97Xuyl56aQ/YPR0275VC+1zC54sHITUnvmNXRtcXPgu7ju57+a+o/uur2ZvszOzj9hfquZCW6DDyurPU+Ytae8BAGEw3mTE9GVd8gm+yHCfVbq9iEEKgFC/Ie09ACAMRpmMZEEBIN8HtRSeMn3S3gMAwkgbEUEBgAYECoDQbJT2HgAQBvNNRhHCDIB8H9RSeEp3S3sPAAgjbUQEBQAakCgAzBpp7wEAYTDfZBQhzADI90EthRfqLmnvAQBhpI2IoABAAwIFgNJ5ae8BAGEw32QUIcwAyPdBLQUFAABQAFSBGVMAyLdvvQUFAABQAFSBGVMAyLdv3YXSHdgfQJ0jbkQEBQAaEBgHulPaewBAGMw3GUUIawDk+6CWgl0AAEABUAVmTAEg3771Fl5oVmF/AHWOtBERFABoQGAcKLNa2nsAQBjMNxlFCK8A5PugloKTAAGAAqAKzJgCQL596y0oAACAAqAKzJgCQL596y08ZdZifwB1jrQRERQAaEBiHOh10t4DAMJgvskoQlgDIN8HtRV6vbT3AIAw8kZEUACggUqPA0/pbmnvAQBhSMDJSD7MAMj3QU2F0j3S3gMAwogbEVFUG6SXddkNGzZEGut6egoR9c91n5V+rXptb5L2HgAQpgqMiCiiDU5e1BF5ol62rtsuX9cd+c89aVEHfVrtulbmTWnvAQBhxI2IKKoNDmrN256IE/Vrq9bZOavWR/oz3Wc8aEGefq1yXXuhflfaewBAGGkjIopvg8yaaJP1Ne2r7XUrV0f6M4M13fRpQnTdOMvuLe0/ACCItAkRxbfBtREm6/U9G+yRbR32qIUdtrsnugLg6vbV9GlCdL1PLvcxzBegjpE2IaL4NpjUYuyK9dEs2nswv/aDn/twx9pIfubK9T12cgt9mhRNj5m77NPS/gMAgkibEFH6dsCeCBK1W1Ow7WcevCBvc2UWFu4zTVu2iv5MkKa9oOvzmC9AHSNtQkTpbXBrbuivAtb27H6Vvttl4P5uqD/3lhxT/0nT8sRAf0HafwBAEGkTIobWBle2ry753b178neJfqCfeeKizpJfMbjP4BYS0o/J0/K4zMovY74AdYy0CRFDb4OfL+4srLovZsHfb/Nrd5j2HygObs3bhzrWFlVcNK9Zb3+2uJM+TKiOU9mOf5D2HwAQRNqEiPLaoCE09pdLuuy9Zo1Va9Zb3f3+6X7ugB+3z9/tHHCr/Uv9ue7fuH/rfob7We5nup/tfof7Xb9Y0ln43fRfctugIav/CfMFqGOkTYigDdCAjAbGqdy/SfsPAAiC+ZKA0UB9asDL5r+N+QLUMdImRNAGaEBIA0p/T9p/AEAQzJcEjAbqUwMNKvcDzBegjpE2IYI2QAMyGvBacmOl/QcABMF8ScBooD414IV6MuYLUMdImxBBG6ABGQ2kQnOotP8AgCCYLwkYDdStBo7HfAHqmCowIYI2QAMCGjhBqUuk/QcAhLDN6XEkH5IPGqhPDdyZeaTfzk9/HQMGqMPkb5vTf5A2IYI2QAMyGrg1+7i1zU1rKQIA6jD526AJ8yUBo4E61cB16nfWeQBFAEAdJn8KAHkTJmgDKQ1coZ57vwCgCACov+RPAUDyoQCpXw1coF76YwFAEQBQX8mfAkDehAnaQEoD09RrOxYAFAEA9ZP8KQBIPhQg9auB09S8XQsAigCA+kj+FADyJkzQBlIa+JnK7L4AoAgAqP3kTwFA8qEAqV8N/DhsGbgAoAgAqO3kTwEgb8IEbSClgSPDRXsuACgCAGo3+VMAkHwoQOpXAweFSwcvACgCAGoz+VMAyJswQRtIaWByuLK4AoAiAKD2kj8FAMmHAqR+NdAQavtuMJ0iAKAekz8FgLwJE7SBpAZ6gwtK8guODQaokeRPAUDyoQCpbw10Zi4r2TMoAgBqIPlTAMgbMEEbSGpgcXD1kHyDIgBAGDs/3WCbm94aavKnACD5UIDUtwaaMzcN2TtskF5jM9O/Ju2DAHVHuU/+FADy5kvQBtIamJ25syz/YCYAIKHJnxkAEpB0AiJk2+DR7KyyPYQiACCByZ8CgAREAq5vDczMPhKJj1AEACQs+VMAyBswQRtIauCG7FOReQlFAECCkj8FAMmHAqS+NXCpeiFSP6EIAEhI8qcAkDdggjaQ1MA09VrknkIRAJCA5L8lmEYCIgGhgTrWwM9VEH0BQBEAUN3J38XbwXRxAyJoAzQgp4HjVGs8BQBFAED1Jn8XbwbnYL4kYDRQxxoo+kpgigCA2kn+Ll4PzhU3III2QANyGpgQ5uyWmH2GNQEARWIz0/xyj/ctNvqC8zFfEjAaqHMNOB+I32/Sa+z86f+XRAAwADZI/5cN0m9UIvm72Ji5QNx8CNoADchqQGdmVMRvbHNa20z6iyQAgJ2w2XP/wgbpVZVK/i66g4swXxIwGqhzDajMDRXzHNucftnOmrU3CQBgO2zQdH8lk7+LtcHF4uZD0AZoQFYDL2TLvBCo5CKg6RTMH2Ardv60fSqd/F10Zi7DfEnAaKDONfBg9sFKe88mO++8z5EAAAqr/puekigAVmSuFDcfgjZAA7IauFE9WXHvsUH6LMwf6h4bpP+PbU5vkSgA2jLXYb4kYDRQ5xq4SL0oUQDkrU1/qO4TANQ37n2YRPJ30Zy5Sdx8CNoADchq4DQ1T8R/bDDtO9L+CyCKDdIPSxUAr2Rux3xJwGigzjUQ63HAe4rmpqmkH6hrbNC0WKoAeDZ7t7j5ELQBGpDVwP6qXWgGoOlmaf8FEMUG6V6pAuDR7CzMlwSMBtCAfTM4V8CD0k+SfqBusbPTH5NK/i7uyz6E+WP+aAAN2FXBZRIFQFbagwHEsMH1H7HNTe9JFQA3ZJ/C/DF/NIAGbFvmWgkPmkf6gbrGNqfXSRUAl6jZmD/mjwbQQGFBsMAMwMPS/gsgig3SrVIFwFlqDuaP+aMBNFBYD1RxD2puup70A3WNDZrulioAfqqymD/mjwbQgL01+7iEB50g7b8AotjmpiOlCoDD1SLMH/NHA2jAXpydLeBB6a+SfqCusXPSf26bm96SKAD2C9sxf8wfDaABO1XNr3Tyb5X2XoCqwAZNt1c6+W8OzsP4MX40gAYKGjgiXFTZAqC56Vhp3wWoCmxm+tdskH67kgNweeYqg/mRANEAGnAamBDm7LvB9Aol/7R2Z6BI+y5A1WCD9CUVrL6Xn9KaORjzx/zRABrYpoH1mYsr4z/zp02W9luAqsIum/EnNmhSFai+l1l1zpdSSh+N+WP+aAANbNPAwuCa/go8fNwq7bUAVYmde/ZXbJBeFXfyd7/LV2Ya5o/5owE0sE0D07OvnGmDpk0xFgDzbHjxJ6V9FqBqsfPTX7fNTV0xDL4F25K/w1PmZswf80cDaGCbBjylf2GD9HdtkO6O4cn/927Hk6y7AiQAmzn7yzZIz4/wyf9Rq9Kf2f53eMo8j/lj/mgADXygAWVmFPwnSH/VBum2CAuAu22Q/oSYoQIkDduW/qgNmtI2SL9RxsBbbzPpY6wdttfOP98LdRfmj/mjATTwRw3ohz7wnzmXftwGTReWd0ZJ4XXmQRU3T4BawU3bv79DoJRpuXTeBunTd37q38bIcPUnfaW3YP6YPxpAA9vNAAS7XZfUnL7KBuneEpJ/u21uOsW2pT9VEZMEqI+rg6eNtM1N59rm9G9t0PSaDdIrbdC01DanX7bNTffZoOlMm5n2H9amP7Snn+W16P8P48f40QAa2FEDet2A/jM7/THbnB5XmBUI0g/b5vScwn7+oGmxbW56yQbpmTZI/8rOn/btWAwQAKLBb8kfiPlj/mgADeygAaW3NM7JfxyfBahhfGWaMH/MHw2ggZ01kMp2/IO0PwFAjHhKz8T8MX80gAZ21oDXoodjvgA1jK9MBvPH/NEAGthFA8r8SNqfACAurN3LU6YP88f80QAa2GUGINRnYb4ANUpK5b+E8WP8aAAN7FYDytwo7VEAEBN+qPfF/DF/NIAGdl8A6KcxX4AaxQ/N8Zg/5o8G0MDuNOCFZqG0RwFATPihvg7zx/zRABrYbQGg9GbMF6BG8ZT5PeaP+aMBNDCQBlKt5rPSPgUAEZO29kOuwsf8MX80gAYGLACyK/8V8wWoMfxM/u8xfowfDaCBPWtAe9JeBQAR44e5SZg/5o8G0MAgGjge8wWoMbgDAOMn+aOBwTTgKX2etFcBQMT4oX6IBEACQANoYBAN3IX5AtQYvjLtmD/mjwbQwCAzAC9JexUAREjD4sV/6u77xvwxfzSABvZYAIQmh/kC1BC+0t/D+DF+NIAGBl0DEJq3G2fZvaU9CwAiwgvNcZg/5o8G0EAxGmjImC9ivgA1gh/qqzF/zB8NoIGiCoCw4zvSngUAEeEr/TLmj/mjATRQjAZSLXo/zBegRvCV7sH8MX80gAaK0YAXmp9JexYARMCYlo6/wvgxfjSABorVgBfqyzFfgBrAa8mNxfwxfzSABorWgDIPSPsWAESAr/QvMX/MHw2ggeI1oOdhvgA1gBeaOzF/zB8NoIHiXwGYVdK+BQAR4IcmxPwxfzSABoouAJR+r7Gt7aMYMECC2We2/bCvzB8wf8wfDaCB0jSgvyLtXwBQBg1Z/U8YP8aPBtBAqRpoaMn/D+YLkGAalGnE/DF/NIAGStVASumDpP0LAMrAU/oMzB/zRwNooFQNeKH5FeYLkGB8pW/H/DF/NIAGSteAvlravwCgDDyl52L+mD8aQAMla0DpRzFfgATDHQAYP8kfDQxRA0ravwBgiIzJrvoLzB/zRwNoYCga8JRZi/kCJBQvk/sPzB/zRwNoYGgFgH7vmCD4iLSPAcAQ8LK5KZg/5o8G0MBQNTB+QedfY74ACcQPzWmYP+aPBtDAUDWQUvn/J+1jADAE/FBfh/lj/mgADQxVA57KT8B8ARKIr/TTmD/mjwbQQBkaOF7axwBgCHjKLMH8MX80gAaGPgNgpmO+AEnD2r28UL+B+WP+aAANlFEA3CRtZQBQIhPmdX4O48f40QAaKFMDT2C+AAkjFea/jvlj/mgADZSpAU4DBEgaftaMxPwxfzSABsrRgKfMGmkvA4ASSYXmUMwf80cDaKC8AoDTAAESh6/MVMwf80cDaKBcDYxp6fgraT8DgBLwlL4C88f80QAaKFcDnAYIkDB8pe/F/DF/NIAGytWAFxpf2s8AoAQ8ZZ7H/DF/NIAGytZA1hyG+QIkCE+ZLOaP+aMBNBDBDMDPpP0MAErAC00O88f80QAaKLsAUPpczBcgQfih2YT5Y/5oAA2UrQGlr5X2MwAoksZZdm9f6S2YP+aPBtBABK8AZmG+AAmBewAwfRI/GohKA25BsbSnAUCRpLId/0ACIAGgATQQkQZCzBcgITRkzLcwf8wfDaCBaGYAdF7a0wCgSFIq933MH/NHA2ggGg3o1zFfgITQoHQK88f80QAaiEoDjXPyH5f2NQAoggZlGjF/zB8NoIGoNJBS+S9hvgAJwB3diflj/mgADUSmgdaOb0j7GgAUgR+a4zF/zB8NoIHoZgBy38d8ARKAH+ZOxfwxfzSABiLTQNaMl/Y1ACgCP9RnYv6YPxpAA1FpwMvmpmC+AAnAU/o8zB/zRwNoILICoEUfJe1rAFAEvtKXYv6YPxpAA5FpQJmfYr4ACcBXZgbmj/mjATQQmQZazOnSvgYAReCH5irMH/NHA2ggslcASp+L+QIkAHd/N+aP+aMBNBBhAXCFtK8BQBH4ytyI+WP+aAANRKiBqzBfgATgh/oWzB/zRwNoIDoN6OukfQ0AisBX+nbMH/NHA2ggulcA5ibMFyAB+KG5C/PH/NEAGoisAAj1bdK+BgBF4Cl9D+aP+aMBNBChBu7GfAESgBfq+zB/zB8NoIEIZwDuk/Y1ACgCXgFg/CR/NBCxBpgBAEgCnjI3kwBIAGgADUQ4A3CrtK8BQBH4ob4a88f80QAaiK4AMDdgvgAJwA/1ZZg/5o8G0ECEGuAgIIAk4If6HMwf80cDaCAyDSh9qbSvAUARNLSYkzF/zB8NoIHoNKDPxHwBEoDfkj8Q88f80QAaiHAG4ERpXwOAIvBDvS/mj/mjATQQYQFwMOYLkABSYf7rmD/mjwbQQFQaaFA6Je1rAFAEqVbzWcwf80cDaCAyDbTkvov5AiQET+luEgAJAA2ggSg0MKal46+kPQ0AisRT5veYP+aPBtBAuRrwQv3uPrPthzFfgITgK3075o/5owE0EMECwA5pPwOAEvCUPgPzx/zRABooewZAmd9jvgAJws+a8Zg/5o8G0ED5BYC+R9rPAKAEJgb6C5g/5o8G0EAEawDSmC9AwvBC3UUCIAGgATRQXgFgfijtZQBQIp7Sj2D+mD8aQAPlaGCcyv0b5guQMFgIiPGT/NFAme//3/OCrk9IexkAlIiXze9DAiABoAE0MPQtgGYxxguQQBrb2j7qK91PAiABoAE0MMQC4A5pHwOAIeIp/RTmj/mjATQwxB0AJ2G+AAnFC/XPMX/MHw2ggSEVAJncf0h7GAAMkVR25b9i/pg/GkADQ9j+9zYLAAESjq9MOwmABIAG0ECJGpgj7V0AUCaeMpdg/pg/GkADJW4BPBfzBUg47j0e5o/5owE0UIoGGrJmhLR3AUC5WLuXp3SeBEACQANooLinf/PWyHD1JzFfgBrAV2YG5o/5owE0UKQGZkt7FgBEhN/a8Q3MH/NHA2igyBmAUzBfgBrCUyZLAiABoAE0MJgGUq3mb6X9CgAixFf6RMwf80cDaGCQ1f+tGC9AjTFe5T7jhfoNEgAJAA2ggT1o4GxprwKAGPCVvh3zx/zRABoYSAPjVO7fMF+AGmR8S/5ffKW3kABIAGgADex6/K9uk/YoAIgRX5nnMH/MHw2ggd28//8F5gtQw6SyuXGYP+aPBtDATsn/vTEtHX8l7U8AEPfJgKFZSAIgAaABNLDd9P8zGC9AHeBlc1Mwf8wfDaCBD/b+q9xEaV8CgAqQtvZDbr8vCYAEgAbQgB8as89s+2HMF6BOaFCmEfPH/NEAGvCV/qW0HwFAJbF2Lz80igRAAkAD9asBdzjYhHmdn8N8AeoMP9SetAERtAEakCwAzPXSPgQAQnhKP4UBk4TRQP1pwAvN236ov4L5AtQp4zK5r71vBPKGRNAGaKCSGtC3SPsPAAjjKzMD4yX5ooH60YAX6nfHhp3/KO09ACBMqtV81lO6W9qUCNoADVSqADB3SvsOAFQJnsofjvmSgNFA7WvAU+YtP5P/e2nPAYAqwlf6aWlzImgDNBC7Bi6S9hoAqDLGZVZ+2VN6MwZMEkYDNaoBpXtGteX/XNprAKAKaWgxJ4ubFEEboIFYNOApfYK0xwBAFd8T4Cv9CgZMEkYDtaUBL9RtxwTBR6Q9BgCqmPELOv/aTRVKGxZBG6CByJ783/OV/p60twBAAvBCPRnzJQGjgdrQgBeaK6U9BQAShDspTNq4CNoADZSb/HVXY9D+Z9J+AgAJorFt7ac8ZZZgwCRhNJBcDXih8aW9BAASiNea+6oXml5pEyNoAzQwpOR/g7SHAECC8bNmvK/0FgyYJIwGkqQBvczN4kn7BwAkHD80Z8sbGkEboIGiNKDMHxrC3L9L+wYA1Mj5AJ4yj5GASEBooPo14A70kvYMAKghxsxd9mk/NKG0uRG0ARrY49P//cOs3UvaLwCgxmjImC/6odEYMEkYDVSfBjylW0aGqz8p7RMAUKM0ZPU/cVKgvNkTtMGOT/66Z8IC83fS/gAANU6qxfy3r8ybJCGSEBqoBg3odxpU7gfSvgAAdUJK5SZ6oXlb3vwI2qC+NZBS+mhpPwCAurwzQL8jbYAEbVCvGvCU+bW0DwBAndKgTCNFgHwiIOqxDfTV0uMfAOocP2sOK1w5Km6IBG1QHxrwlJ7pzueQHvsAAMNSoTmUmQD5xEDUfht4oX64sa3to9gOAFQNfqg9L9RvSBskQRvUrAaUuf+YIPiI9FgHANgFL5vfxw/NJnGjJGiDGtOAF+r79pltP4ztAEDVkmo13/SUWSttmARtUCsa8JS+h+QPAFWPtcP2WpS5+u7j1AJx4yRog6RrwFP6Chb8AUAikr8N0tfYoMluDs6zZ6i54gZK0AZJ1MD4UNsHsw/02fnpr0uPawCAopP/tng3mG6vzz4tbqYEbZAkDTSG7XZu5pb3x1Fz01qKAABIVPLfPh7NzrITwpy4sRK0QbVr4NBwiV0eXLXjGKIIAIAkJv9t0Za5zh4WLhY3WII2qFYNTFXzbU9w0e7HEEUAACQx+W+L3uACe5aaI260BG1QbRq4Sj1j3w2m7XkMUQQAQDVgbfpDNkjfVGzy3xZbgib7QPZB2xBqcdMlaANpDeyv2u0rmdtLGEPpNTYz/WvS4x8A6pRSn/x3F9nMjbwSIAHXdZyisrYzc1np44eZAABIavLfFv3Befay7AviRkzQBpXUgFsQe1v2cftOMH3o44ciAACSmvy3j1czt9kpahmJmERc8xo4WrXZhZlroxk7FAEAkOTkvy3c6uemLAsEpRMUEU8buDUvN2Sfsm8FZ0c7digCACDJyX/7mJe52R6uFpGISMY1o4GTlbJLMlfHN24oAgAg6cl/W7wenFt4WnLHoUqbN0EbDFUDPwxXFA7Bem+w7X0UAQBQbUgk/+1jReZK+zOVIQmThBOngenqVbs+c3FlxwwzAQBQC8l/W2wJptnns3fZQ9UScVMnaIPBNPBzFRROvRQbMxQBAFALyX/7eDM4p3CAkDs4hURMIq42Dfw4bC3sZpEeJxQBAFBTyX/76A4uKhybyvoA+aRHmMKC1acz91TmPT9FAADEm/ybbhQ3ryIiH1xROESIQoBELFGIHKUWFhb4vZWJeFtfpJFeY+dP/784JgAMig3SF8ibVmnRFlz7UEOYu9ML9bs8kVIMxK2BE7LqPbcm5d1yTvGrZDSntc2kv4j9AcCA2Ex6krhZlWxuTbe6S4nc5/dac1/1Q3OXH+p3KAQoBKLXgH7RD/Nj7Pz0f9qgaZO49ksrAl62s2btjf0BwK7Jf955n7NBujupyX97Jgb6C74yTb7SPRQCFALlaMBTps8LzfWp7Mp/3WG8NE/7ng3SfQkbL6dgfQCwawEQNF1ZC8l/exrb1n7KV+YYPzSLKAQoBErSgDKLf4JTiwAABUlJREFUfWWmplrNZwecMUteEbDJFfrYHwB8gA3Tf2mD9Bu1lPy3J23th7zQ+F5oHmedAIXAgE/7oen1lLnZV/p7xWoreUVA+iysDwA+wAZNp9Zq8h/g9cBUL9TLmRWgGPCV+YOnzGOp0Bw6Mlz9yaFoKllrAtL5csYPANQYtjk9px6S/45f2u6VUrnv+8rc4SvdTzFQP8WAmwXyQvOC16KPGq9yn4lETomaCZj2nSi+MwAkHBte/EkbpN+uq+S/E/vkch9zrwhcMeAWfUknKCKONtCvuyd9tyZkXFvuf8eho8QUAc1NU+P4/gCQMGww/V/qOfnvjBd0fSLVovfzQn0fMwMJL0aUafeVmdGQNSMa29o+Wgn9JOR1wM2VaAsAqHJs87SRVWBIVZH8d2af2fbDXmj+ywvNBb4ygXhCI/bYBp4ya7zQzCrs/FDmn4cJUf1FQPpJqbYBgCrCzm86RN6Qqi/57w4/1F/xQ3O8r/SjvCqQL0i80Kzylb7XU+bYhpaVVXXcbXW/DkhnpdsHAKoAOz99gLwhVX/y35nGWXZv95S59WnzDj80Rjoh1sGBPK+6KX23Yl/yCb8GZgLmSbcNAFQBtjn9/SowpEQl/4EYG3b+o6fyh/uhvs5Teq4X6jekE2fiQuktXmhyvjJP+spcnFL6INeubtfGsARSnUVA+mHpdgGAKsDdFCZvSMlP/nuaJXBJzFPmEk+Z5917avEkWwXhKfOWO4vBrcz3QnOhnzWHNWTMt9zpjcNqjKp7HdDcdL10mwBAFWCD6z9im9P94qZUY8l/T4yZu+zTqVbzzYYwf4Af6jO3XmA0zw/1+hp6ku/3lV7qh/p3Xmhu8FvM6a4QcqfspVT+S+50xmF1RJXNBJwg3R4AUCXY5qanxE2pTpJ/MWcSpFrN327dffBDX5mf+kpf6ooELzTP+qGe7xKrp8xad4pd/IncvOkp3V3YUhca9f57eP20H5q7PaWv8JT5dUOYO6JwjkJL7rvjVe5v3FZK6XasRqpnJiD9Vem2AIAqwWaaDif5J5PGOfmPu4Nt3FXIblbBhZfNf9vtfd8WXqgnNyjTWIgW07D93zW05P9n278rRJj/ukvi7hIctw1S+vvVGvJFQLpVug0AoIqwQfoTtjm9jid/gBp/HdDcdCx9DAA7YIP0r5j2B6jhmYDmtLaz0x+jjwFgB+yyGX9im9PLKvgkwjt/qGsqXgTMnzZZ+jsDQJViM9O/aZub3iL5A9TY64DmplvpUwDYIzZIT7HN6S08+QPUTBEwz936SX8CwKDYoOl429z0XvRGlL6GrX4Auxtz6e/aIN0dw5P/7+2c9J/T5gBQNLZ52njb3LQxosT/tg2aTqX5AfYw5oL0V22QbouwALjb7fChzQGgZGzm7C/boOmRMpP/fJtJf4vmByhizM259OM2aLqwvLU46VU2aDqI9gaAsrHBtP/eWgi8U9y0o1tDkH7VZtKTmPIHGMKYm3v2V2xz+iobpHtLSP7ttrnpFNuWrrn7FABAGBukP2/nNx1ig/R1Nkg/7u4Vt0GTsUHTAhs0/a6wta+56Vir0n8j/VkBagG3b982p8cVZgWC9MO2OT2nsJ8/aFpsm5teskF6ZuEMj/nTvi39WQEAAAAAAAAAAAAAAAAAAAAAAAAAAAAAAAAAAAAAAAAAAAAAAAAAAAAAAAAAAAAAAAAAAAAAAAAAAAAAAAAAAAAAAAAAAAAAAAAAAAAAAAAAAAAAAAAAAAAAAAAAAAAAAAAAAAAAAAAAAAAAAAAAAAAAAAAAAAAAAAAAAAAAAABgWE3x/wML7VDwUVRC+AAAAABJRU5ErkJggg==;" vertex="1" parent="1">
          <mxGeometry x="120" y="256" width="71" height="71" as="geometry" />
        </mxCell>
        <mxCell id="8pqZ917RF1C_p-31OUPB-14" style="edgeStyle=orthogonalEdgeStyle;rounded=0;orthogonalLoop=1;jettySize=auto;html=1;" edge="1" parent="1" source="8pqZ917RF1C_p-31OUPB-2" target="8pqZ917RF1C_p-31OUPB-6">
          <mxGeometry relative="1" as="geometry" />
        </mxCell>
        <mxCell id="8pqZ917RF1C_p-31OUPB-2" value="" style="sketch=0;points=[[0,0,0],[0.25,0,0],[0.5,0,0],[0.75,0,0],[1,0,0],[0,1,0],[0.25,1,0],[0.5,1,0],[0.75,1,0],[1,1,0],[0,0.25,0],[0,0.5,0],[0,0.75,0],[1,0.25,0],[1,0.5,0],[1,0.75,0]];outlineConnect=0;fontColor=#232F3E;fillColor=#E7157B;strokeColor=#ffffff;dashed=0;verticalLabelPosition=bottom;verticalAlign=top;align=center;html=1;fontSize=12;fontStyle=0;aspect=fixed;shape=mxgraph.aws4.resourceIcon;resIcon=mxgraph.aws4.sqs;" vertex="1" parent="1">
          <mxGeometry x="267" y="416" width="78" height="78" as="geometry" />
        </mxCell>
        <mxCell id="8pqZ917RF1C_p-31OUPB-12" style="edgeStyle=orthogonalEdgeStyle;rounded=0;orthogonalLoop=1;jettySize=auto;html=1;" edge="1" parent="1" source="8pqZ917RF1C_p-31OUPB-3" target="8pqZ917RF1C_p-31OUPB-4">
          <mxGeometry relative="1" as="geometry" />
        </mxCell>
        <mxCell id="8pqZ917RF1C_p-31OUPB-3" value="" style="sketch=0;points=[[0,0,0],[0.25,0,0],[0.5,0,0],[0.75,0,0],[1,0,0],[0,1,0],[0.25,1,0],[0.5,1,0],[0.75,1,0],[1,1,0],[0,0.25,0],[0,0.5,0],[0,0.75,0],[1,0.25,0],[1,0.5,0],[1,0.75,0]];outlineConnect=0;fontColor=#232F3E;fillColor=#C925D1;strokeColor=#ffffff;dashed=0;verticalLabelPosition=bottom;verticalAlign=top;align=center;html=1;fontSize=12;fontStyle=0;aspect=fixed;shape=mxgraph.aws4.resourceIcon;resIcon=mxgraph.aws4.dynamodb;" vertex="1" parent="1">
          <mxGeometry x="279" y="78" width="78" height="78" as="geometry" />
        </mxCell>
        <mxCell id="8pqZ917RF1C_p-31OUPB-13" style="edgeStyle=orthogonalEdgeStyle;rounded=0;orthogonalLoop=1;jettySize=auto;html=1;" edge="1" parent="1" source="8pqZ917RF1C_p-31OUPB-4" target="8pqZ917RF1C_p-31OUPB-5">
          <mxGeometry relative="1" as="geometry" />
        </mxCell>
        <mxCell id="8pqZ917RF1C_p-31OUPB-4" value="" style="sketch=0;points=[[0,0,0],[0.25,0,0],[0.5,0,0],[0.75,0,0],[1,0,0],[0,1,0],[0.25,1,0],[0.5,1,0],[0.75,1,0],[1,1,0],[0,0.25,0],[0,0.5,0],[0,0.75,0],[1,0.25,0],[1,0.5,0],[1,0.75,0]];outlineConnect=0;fontColor=#232F3E;fillColor=#8C4FFF;strokeColor=#ffffff;dashed=0;verticalLabelPosition=bottom;verticalAlign=top;align=center;html=1;fontSize=12;fontStyle=0;aspect=fixed;shape=mxgraph.aws4.resourceIcon;resIcon=mxgraph.aws4.kinesis_data_streams;" vertex="1" parent="1">
          <mxGeometry x="512" y="78" width="78" height="78" as="geometry" />
        </mxCell>
        <mxCell id="8pqZ917RF1C_p-31OUPB-5" value="" style="shape=image;aspect=fixed;image=data:image/png,iVBORw0KGgoAAAANSUhEUgAAAgAAAAIACAYAAAD0eNT6AAAACXBIWXMAAAsTAAALEwEAmpwYAAAgAElEQVR4nO29CXRcR5m37xBg2IaBgZnvA2Y+htk+mGGYmT/wwQwzE4h3973yFoXE2ciekJAQApiEJC07+x6Tfd+dxEnIvpDNWY1t3e66kuXdcle1JK+SLctKQjbX/1THDt5kdavv7bdv9/Oc856TY8dSd9Wvfu9769YybBgAAAAAAAAAAAAAAAAAAAAAAAAAAAAAAAAAAAAAAAAAAAAAAAAAAAAAAAAAAAAAAAAAAAAAAAAAAAAAAAAAAAAAAAAAAAAAAAAAAAAAAAAAAAAAAAAAAAAAAAAAAAAAAAAAAAAAAAAAAAAAAAAAAAAAAAAAAAAAAAAAAAAAAAAAANQEjW1rP+Ur889+1oz0QvNDPzTHe8r82lf6Uj/Ut3ihfthX+mVfmcAP9TJfmfZChHq9r8wGF16o3/VDYz+IrX/+wd8rs+aP/84oPzRzvNA86yvzgBeaO73QXO+F5kIv1GlP6RMawvwBXosensqu/NeUyn9pn1zuY9LtBAAAkCiOCYKPjG/J/0uDMo1eqH/uKfMbX+lH/dCEhQS9feKu5lC631N6hR/qF31l7vCUPs/L5n/sh9pzhcKEeZ2fk25rAACAipO29kN+Jv/3KZWb6Cl9hhfq+7xQt3mheVs8eVesSHCzDXru1gLhDF+Z/RvC3L+PDFd/EkkCAEBN0LB48Z96ofkvX5mpnjKP+Ur3iCfgKg4vNKvebyfT5GZD3GuPYdbuJd2PAAAAe2RiuOIvfaUP9pW5sfBkr/R70kk16eEp3e3WInhKn9ugdCrVaj6LDAEAQJR9ZtsP+0p/zw/1OV6om0n4FSkI3nPFlR/q61KhOTTVav6WYQAAABVZke9lc1O80MzyQrNR+gmZKBQFKzylr/GzZrx77cIwAACASGick/+4F+rJ7yd9/QZJt3oLD7eg0lP6Jb/FnO52VjAEAACg5BX7qWxunB+auzxl+qQTGzHUNnDnIujzGzLmWwwBAAAYkHFtuf9dOGQnNJqkW1uFhxeanDs8iWIAAAA+INVqvlnYm15Pe/LrOxa57Zl+a/v/YhgAANQZjW1tH20Ic0f4yiyugoREyK0ZeMQtIHS7OqQ1CQAAMeJOnWtoMSd7SudJvBQe2xUDq9whRBxZDABQY4xqy//51stsukn8JP4BNaB0v6/0teMyua9JaxYAAMrAC7o+4YfmNC80vSR+En/RGlB6ix+aJxrCju8wAAEAEraV7/0b9kyOxE/iL3OtwLMUAgAACcCdG//+kbEkPtogUg084WXz35bWNwAA7IQf6q84kybpUfjEunvA3VoY6q8wAAEAhHFbuLau7N9M8if5V2YLoX7DC80FY+Yu+7S0/gEA6hIvNP/lK72AxE/iF9s+mDWHDbN2L+mxAABQN5f0+KG5autqbd510waiGvCUeX7CAvN30uMCAKBkjgmCj7i9z37WjHRPNO5MfC80F3qhuf790Pe5G/F8ZW70Qn25r8xP/VB7EgenpML81z2lW0h6FD7VpIHCbZHKTG2cZfeOQ/de0PV5N+Y8ZU7ZOgZv3HpL5X1/HKfmQjd2U6E5tCFrRrgx7cZ2HJ8HABKK15r7qh/qn/hK3+6HJhzyOfjuCbxwnK6+xW/JH+iezOPc2ucM1lPmLWmzJ2iDPRQCza5IjeQq6mxuihfqWz1llpQxO+HGi/JCfZuv9Iljw85/jGZEAkAysHavVIv5b/eUEOdtd+7AHfc7xmf1f0b58ccv6PxrP9QvknhJvImZDQjN8UPRuq/097zQ3BDz4VXaD/V1bg0N6xcAavkIXDedr/SKipug0nO9Fj283O/Q0JL/H1+Z1dKmTtAGQygEHi72NVnh9Vuo51deZ3qZOy1zvMp9ptyxCgBVQKrVfNZTZrofmk3VsEBqqCepeaH5mR/qd6S/A0EbDF3/Ou9m3wbSuN+S+64XmhekNeaFZqO7L6MxaP+zsswHAORwR+D6oV4vbSg7hNJb3KuBxra1nyrmO+yTy32s8M5S+nMTtEEkGtDvuPUrO99T4c4S8JR+r6p0pswGX5ljYjMoAIiehoz5oqf0U+IGsodwryIK7x0Hed/PKn/5viLiaAN9nVuVv/W1Vns1t7EXmscnBvoLeDVAlePOKPdC3SVtGkUZy/tPPGfvbvGRr8w/uylT6c9I0AYx6r+j6p76BwqlO1Kt5psyrgYAg5Jq0fttXXUsbxglmYt5YGS4+pPbvkeDyv2Aa3uroF8I2mD7gqXgLblJWDFAleGp/IQh7+Gvjgi9oP3/eKGe7CvzZhV8HoI2QAM7acB5TEOLaZD2OwDYiqfMqFo4FMdTuQ0c6SvfDwRtsEcNKPNmFNt6AaBMti6U68a0h27ak1ry9uQlXfaC9jX2zo719rk1G2xLzya7vLfP5jdttus299vXX3/d9mzut6v6NtuVvX12wYZN9rX1G+19nd12Rm6tnbp0lT2wNU/yjDl5TlmQL7S1a/NZnd2FPnB94frE9U3P1r5yfeb6zvWh68tn12ywd3SsL/TxyYu7Cn3OmCmjL5TZMF7l/gYDBxDCrSL2QvMaRlaaeY1vMfbUpavsLfl1dl53r924NWmUG/2vv24Xb+yzD3R126blq+3+FARlJ1nXhtNWrC606ZKNfYU2jqKvXJ/PW99rbzbrClpwmmAcldoGel5jW9tHSQAAArjDOjCt4g3r+EWd9vaO9Vb39kWSRAaL3v5++8q6jfbc9jV2Ak+cJRVopy1bZZ9es8FuiKg4Gyy6Nm0uFBknLe6iEChhTHlKn4H5A1SYwpn4SvdTAOzZoCa25O2lK9faRRs2VSSRDBSr+/rtvZ3d9pAFHSSYAfrqkLaOQhu5tpLsq4UbNtlLV1K0FVUAhPqNcZmVXyYBAFQQd/UnyX9gY3LveK/IrS28B5ZMJjvHpv7+wpPt0Ys6KQS29tURCzsLT99RvYqJKkxvn71Gr7OTeZUzmFbvxvwBKoS7xjMxB4hUOBpCYy9sX1OY0pVOIIMVAm4BYWMdvxpw7/fv7+y2ff3Vlfh3js5NmwuLB6Xbq1rDedGEBebvSAAAFcAPzVXSg74a45hFnXbu+l7xhFFKuELl4jpMLm6RZLXNzgwWzet7C+tIpNuuKkOZGZg/QMyMmbvs057Sm8UHfJU99d+aX1/1T5J7ilfXbbQH1cH6gIMXdNg5CSvSdp65cTsHGqqgLaspPGX6GhYv/lMSAECMpJQ+SHqwV1MctCCf6ISyfazu22xPX7ZKvE3jCrd/302nS7dzFNHc3VtYtCjdptUUDWH+AMwfIEbcufnSA72aEkpXX20klG2xuf/1wmxGLT1huu9ye3594btJt2/Ur2+m1nDBVnIofS/mDxAT++RyH6v01j/v1TY77uEX7Ni7HrLjHnzGes/NdwNd3GzOXrHGbkzwlP9g4XYK1MLZARNajH1idY94e8b5SuD8aljDoXRhbLoxWhirD79QGLuVfg3AwUAAMeEr/b2KDOb5y+yYy6+zIw493O47fLjdd999d4jhEybZUWec/X4xIGB2V+l1kZ0IV83hDhHaL8Fb0Nxnd2sbpNsx7nBavN6sE2lj79l5hbE4YsKkXcapG7sjDjuiMJbdmK7E52kIO75DAgCIAS80P4t7AI+77X47fMLEXc1kNzF85Eg7uul86wftFTO82/LrxQ2/kpHt7rWNCSwC3PZG1V0bazOKDXe0dMXaOJuzo9PnFcZgMWPVFQhjb3+gAp9N/wTzB4gBT+mZcQ7e0eddttsn/sFi5JHHWu+1+Kcbr9RrxU1eIuZ39ybq8hp3+mKtLMwsNdzBQRVpZ5UrPN2XNFaHD7ejz7887s92F+YPEAOe0i1xDdwxl15TcuLfoQg44phYZwLce9Z6mPYfKNxtdklYGOg+o7tNUbq9pMJp9LwKrQlIPflq0TMA20fhlUB8n0th/gAx4IWmN45BO+7B3w3pyX/nKLwOiGm1v1tsJW3u0jGrq1s8wQ8W7khf6XaSDncJ1C+XVmZ3QGHWrtSxOnyETf322Xg+kzIbMH+AiBmvcp+JZ8BqO/KIo8tO/oUYMdJ6z0a7MNAdjlPtx/pWMtzuB+kkP1Ccu2KNePtUS6zq21yZi5+Cdjv8gINKHqsjDjsytt087rAyEgBAhIxvyf9LHIN13Kynokn+WyP12IuRTicn7WjfuGP95n575MLqO472qIWdtrvKLvOphrUb7mrjuNs+9eAzQxqr4x74XTyfSZl/xvwBImR8Vv9nHIN19FnnRpb8R554SqSfzR2II23i1RgtPZuq6owAt+hvQY/sdcvVGjdVaHvgqJ/+ompe2fktue9i/gAR0pA1I+IYrCMO+VEkyX/4uJT1Xgoj+1zHLepM9Nn+cccNQvvOdxfubHzp9qjWcGtXjq3AjI33QsbuO3p0aa8BDvlRTJ9H74v5A0SIFxo/jsE63B8fSQEw9oa7Iv1cbvpU2ryrOTZs7rdHVMGrgMMXdtoepv4HvUWwEjs4Rp9zSWlFe8P4uAoAD/MHiBBP5SfEMVj3HTWq/Kn/o38c6YKii9pZTFZMEfDC2g3iBcDLdXDSXxRRkeOC5y21wxsmFD92R42K5XM4r8L8ASLETavFMViHT9qvvALAbSl68tXIPs/k1jyr/ktILG6LpFTydzcXSifWpETHps12cgXWbYy57NriXwHst38sn6FB5X6A+QNESKrVfDOOweqe3sspAEadeU6kn+dqzfvkUhKLe1UiVQAEvKYpqa9+k1sbf7/MX1b0LMDIY34cTwEQ5v4d8weIkAkLzN9JPzHsEp4f6RHAbmW77u0Tf1pLWvxcYBbg1KU8/ZfaT6a3r7BjIu6+GX3J1UWN3zGXXx/L7x+vcn+D+QNESOOc/Mf9UL8T9WBNPTe/MI0/lAJgzNW3RvpZLltZn2f9lxvuxr1KFwD1etZ/uXHJyvjXAnhzl9rhXsPgh3Y9H0T/u0Pztru2HPMHiBhf6QVxGMao09IlJ//hP5xi/ezKSD/Hog3sJR/q+fNHL6rcjoBjF3WKJ9KkxsINmyrSR6MvnLHnV3e/nh7X7w4xfoAY8JW+PY5Bm3q5Zff3ie8h3LXBUX6GH5NUykost3esr1gBcGcHBzSV01dO63H3kRvT+w5wUdDwCZOs98qCmH63vgXzB4gBd9d2XIYx7pEX7PDRY4pbPXzwYZGfI+4uupF+OktyuLUTldhr7n5HjnUaZfXVPZ2VudRp1M9P3zX5jx4T6XHdO4en9AmYP0AMjMus/LKv9Ja4Bm/qiVeK2hY47p7HIv297rx0LvxJxmJAt+1QuthJenRu2lyROwLGPfzCLk/+qUdnx/c7ld4yfkHnX2P+ADHhKT03TtPwXm61o05vGnBh4Mgjj438d7KiPJrEcm8FnixndTJTE0Vf/XRJV+x95cLd+ucW/I3+9fQYp/23ekdoXsX4AWLED3OnVsI43ArhMZdfV9grXJgVGDnSDh8/waYeei7y33VLnr3/USQVdyFP3LpgoWY0xdqNFbrLwR3SFcdq/92GMj/F/AFiZMK8zs95yvRVZEBXKOaVcaBMf3+/nTNnjr3sssvskUceaSdNmmRHjRpl999/f3vSSSfZO+64wy5fvlx82rcSsbn/dXtAa3z7zA9szRd2HAz183V3d9vHHnvMnnnmmfbQQw+148aNK4T7b/dnjz/+eOH/kW7HSoTbRik97qIMT+nNXtD1ecwfIGa80FwoPeCjikktebtxiJfJzJ071x577LGDL1ocMcKef/75tqOjQ9z4447pK1bH1lfnrBjaHQ19fX125syZdsKEwU+omzhxor3nnnvs5s2bxdsy7sucnPalx19kofT5GD9ABfBb2/+XH+rXxQd9BHHykq4hGahLEsOHDy9p6+J+++1ns9msuPnHGTNjXAfgVq+X+nncE/3UqVNLPmfi1FNPtWvX1vbBUCctrsw6gPhDvz4xXPGXmD9AhfCUPkN+4JcfFw7h5r9rrx368cVjx46t6SJgdow3BL60dmPJyf+oo44acl+5f9vT0yPepom+IXBbqPh+theaX2H8ABVkn9n2w74ygXQCr/ShMk8//XTJT/67mwno7KzN0+yWbuyLra+Wl7j//4wzziirn1ycddZZ4m0aV9yer9zhTbElf2WyxwTBRzB/gAozTuX+zZ29LW0C5cRzazYUbZjuaXDy5MllJxUXF1xwgXgCiCN6+/tj2WM+ocXYTf3Fr9V46aWXIuknF6+++qp4u8YRz6zZkPTk/5bf2vENjB9AiIYwd4S0EZQTLT3Fn/9/5513RpZU3MLAFStWiCeBOOJHbR2R99PhC0ubMTnmmGMi6yu30FO6TeOIsCfZOwE8ZY7F+AGE8ZW+VNoMKjGtXM775N2FKyikk0AccVwMZ82XcleDK6yi7CcX7e3t4u0adSyL8XVN7Mk/NBdK+x4ADBs2LG3th3xl7pc2haFEx6bitnt1dXWV/e5/53DnBEgngTjilBhOmSvltMb77rsv8gJg1qxZ4u0adeQ3bRYff0MKpe91noP5AlTVosB4bguMM7qLPAMgk8lEnlQOOOAA8SQQR5y+LPo7AX69rPgC4De/+U3kfXXllVeKt2vUsX5zv/j4KzW8UN/aOMvuLe13ALC7mYDQXCVtEqWEO72uGLOcPXt25Ell9OjR4kkgjjh7RfTby9zPLPb3T58+PfK+cj9Tul2jjr7+18XHX0mhzIxh1u6F8QJUManQHOqF+g1xwygi3IloxZ76F3VScccGSyeBOOLMZdGfBnjW8tVF//5LL7008r5yRz1Lt2vU0ZOUGQBl/tDQYk6W9jUAKJJUq/mmp8xKcfMYJFb1FbcGwJ3nH3VScYsKpZNAHPGLGK4F/mUJawBuvfXWyPvqtttuE2/XqMNdgZ2A5N/eEOb+HeMFSBiNQfufeaG50gv1u+JGMkCsLHIXgLv0x13wE2VSmTFjhngSiCNOiGEXwE8WF39k8/z58yMvAIIgEG/XqGN5Fe8CKHiGMjPGzF32aWkfA4AycBW8H+p50qayu1i4ofhzAC6++OJIk8q8efPEk0AcceTC6AuAo0vYBugu8nGX+kT5qsYVgNLtGnUs2LCpOpO/MtmUyv8/TBeglhYItuQP9EOzSPLc8J3jtfXFny/v9oK7q36jSCrHHXdcTSYVd13vfjFcCdxY4lXAUR7adPfdd4u3axzxyrqN1ZX4Q93mK7M/W/wAahQ3uL1sboofGiVtOC7uL/GGuSuuuCKSUwCbm5vFE0AcYXr7xM9scLFhwwY7ZcqUsvvq4IMPths3lnYJUVJiVld8NzeWFMpkGsL8ASR+gDqiIez4jqfMzZJXC/8mV9qVr5s2bbInn3wyT5QDtM/c9fEdLzu/u7ekvlqyZIlNpVJD7iv3bxctWiSeqOOKy3NrBZO+7veVudHL5r8t7UMAIIhb6OOF5odeqO/zsmZzJY1oagmry7fF6tWr7YknnlhyQnEnCd5www3ixh9n/DbGp8qHV5V+Na/bvtnQ0FByX40fP77wb6XbM85wOyuEkn9Pw+LFf4rpAsAOjA21V0kzmrKgtHfL26K3t7fwOqDYNQHuCuBnnnlG3PST/FQ5o8TZmu23cJZSsLkjmmv1oqZt4TR/YAxrNYqNieGKv8T6AGAHfGUurrQZLd5Y2j3zOyeXSy65xDY2Nu72id/dJHfXXXcV3klLm34lwq3Wj6ufjinxRsCd44UXXrCnnXaaHTt27C595f7s9NNPty+++KJ4G1Yi3O4XqeTvwsvm98H6AGAH/NCElTajB7pKWwi4u3Ar+l0x4Lb2uUSTzWbtqlWlv15IclTicplSFgIOFK4Yc+/2X3nllUK4/66XAq1aFgCmlD4a6wOAD/CCrs97Sr9XaTOatqL4Y2aJgdvgydUbYu+r362pr0QdV7ijlSULAD80F2F9APABbiuQhBnt35q3G2twT36l4/z26C8B2jkubC/+UiBi922wcXN/4VwFyQLAC/XDWB8AfIDkTYLP82RZVsJ01yrHcQDQzuESl7vEhuQ+9L56Zk38MzWDFwBmIdYHAB/gKxNIGVJTCbfNEbu2wRMVmP7fFk9TrFXdbY0lhzJvcrUvABTwgq5P+KF+R8qQJrQUfzMgsWsbuPMUKtVXpy+rr8WVUcbqvs0FrYsXAG4WIOj6PPYHAMNSKvd9aUO6t8RjgYk/3irXUMF+cr+rvYytm/UcMzur5PhfF60d38D6AMBN/0+VNqSDF3QUFkhJm3TS4tKV8S/+2zkuXzm0Q4HqOdxC10PaOuQT/weRH4P1AcAwdwywvCGZwlG20kadtMt/JrZUfkX5hJa81b3MApTSV+7iK+nxtWPoI7E+ABhW1DXBFYgftXXYTWwJLDqpuMuUpPrqGr1OvABKSvT199vDF3ZWWwFwJtYHUOc0zsl/3Av1u/KG9H7cx1qAopLKio19dpLA0/+2cDMPK5gFKKqv7qm6p//CToAZ0t4DAMK4K0HFzWi7aGzJR3LkbK3HaVK3yW0X7Ago7ohm6YN/dhdeqG+T9h4AEMZT+cOlzWjnOI8T5/aYVJ6tgsNktsXzazkeeE99dfaKyi/SLC70Q9LeAwDCeKG5QN6Mdo1X120Uf8quxli7ud8eWkWryd26jfXs3thtX728bqN4/+whZkt7DwAI4yvzQBWY0S5x0IK87eRVwC73yE9fUQUnye0U6eWrC59Nujiqtqn/KQuqb+p/W3jKZKW9BwDq8ArgYmPqslV2c7+8mVdLuAWS0n0yUDzIFs4P+qmv/3X7yypYozFIAbBS2nsAQBJr9/KU6ZM2oz3Frfn14om3GiLs6RXZ819suB0JrT2bxNupGuIms068PwYtAELdhfkC1DETA/0FaSMq5ujZJ1b3iJu6ZKzs7bOHLKie9/57em3jjiaWbi/JcJclVfJo5qGHXiftPwAgSLVtARwoxrcYO7tOV5uv7uu3xyyqtkNkBo6jFnbarjq92OmVdRur5rKfwcILzUbMF6COaWgxDdJGVGy4++6z3b3iJl/J6N7cb3+yuEu87UuNkxZ3FT67dPtVMjLdvXZyFe73HzCU7pf2HwAQxAvNceJGVEK4A1XmrK+PIsBdj5zE5L8tfryos252cczr7i0cYCXd5qWEp8xbmC9AHeMr0yRtRKWGWwj3zJrafh2Q6+2LfNrfe3WBTT0zz6Yee8mOu/8pO/auhwrh/tv9mfs79/9E+TuPXNhZOLJYuj3jjN+t2VC4HEl6XJQcSm+R9h8AEMQLzfXiRjSEcIusZnV11+Tec7fa312NXE77pJ56zY75zY121K/SduQRR9vhnm/33Xff4sLz7YjDjy78W/cz3M8q57O4xYu1uDvAae/ezu6ELPjbNTyl38N8AeoYX5n7pY2onJi2YrVdVyPvml1CeaCre2hb/ZS24+593I6aeqYdMWFS8cm+yHA/c9Qvzyz8Dve7Sv18bmGcuxCnVgo2t77h3PZqPeK3yAIgNG9L+w8ACOKF+hlpIyo33DWrKuGLAwsJZShnxs9basdcfr0dsf+BkSf9AYuB/Q+0Y664ofC7S/28TctXF44ylm7vcmJBz6bCTgdp3ZcdyvwB8wWoY/xQzxc3ogjCvYO9wayzPQlMLu5in6Gc7T/u7kfs8En7VSzx7xzDJ0y0Y2+cWfKMwGFtHfa5BK7hcNq6Xq9L5vv+3YQX6jek/QcABPGVXiptRFGGS6TuIBbpZFFMuMVxZywr/bhY75UFduSxJ4gl/p1j5LEnWu/VtpK/x9Slq+yyhCwQdPv73UyTtL4jLQCU3oz5AtQxXmhWSRtRHOGSS3OVvhbQvX32Sr12SO/6Uy9k7PDJjeJJf5fZgP32t97s7JCOD75Kr7Omt69qt/e5+yik9RxTbJL2HwAQxFe6pwqMKLY4demqwtNbf5Vs7btGryskvaF8F2/eUjvigCniyX6gGHHgQdafv2xI381Nq1/cvsauqJJCYN763oJ2pPUbayizAfMFqGOq/SKgqMJN395o1tn2Ck85b9zcb59fs6Gw+M0dZ1zOdxg17ULxJD9YjD774rK+o9tS94ulq+yjq3psT39l13O4WQi3UyFJxy6XE57S3dL+AwCC+Mq8KW1ElYxtCcbt316wYVMsMwMukTy1eoM9v31N4fjiSD5783K77+gx4gl+0FcBY8dZr3l5JN/Ztd0F7WsKbZmP4URBd820W9HvtOCe9pO6n3/owWVAAHWNF+p35Y1ILg5ozdvpK1bbmZ3dhcuGlm7ss71FPnn2b32fP3d9r/1tV7e9fOVae3RMT4/jHvydeHIvNlK/fTaWNnBP5pfn1hba2rW5K7SKLeBcn7q+dX3s+tr1uet7af2JhjKrpf0HAAQRN6EqDDdV714ZHL+o056ypMuetmxVYY/+mctW218uXVU4n9/tA4/s6b6IGHvXw+KJvdhw2xMr1S6uD1xfuD5xfeP6yPWV6zPXd64Pf9TWUfbrl1oML9RdmC9AHSNtQkRxbTDxydniib3YmPTUS/RrErStdIe0/wCAIOImRAzYBpPVSntRdrYNsjfat5qn2YMbU+LJfbA4ZP9U4bO6z+w+u/sO9HGV6lyZdswXoI4RNyFilzY4XC2yD2fvt/3BedYGTR/E8zf9WDzBDxazbz5hh8/svoP7Lu470ddVpndlFkv7DwAIIm5CxAdt8KNwsX06M9O+E0zfIYluHxdPrd5zAC497aABP7f7Tu67ue9In1eH7j2lWzFfgDpG2oQIYyeGOXtD9in7RuacARPotnivOW0vqsIi4JJfTSl8tsE+/x+Cc+zM7MO8GqgG7SsTSPsPAAgibkJ1Hieq0OYyvxk0ce4cj199rB2fGiWe+N1nePLa40r+/B2Zy+1PVelHBxPRtYGnzO8xX4A6BkOVSyo3Z5+wb+9hun+w2Pji6YXZgOHDK5/4RwwfXngd0fvSr4f8+d13d22ABmX05yn9krT/AIAgmG/ljXdCmLNPZu8dcuLcObpfON3ec8mR9ocTx8JQjDUAACAASURBVMae+Cc3jLE3TD/Mrn72V5F9/ucydxdeg6DFCmtRmecwX4A6BtOtrOk2hitsa+a6yJLnDgvt5qXt3LtOslenD7FHHOhHlvTdz7omfaidd/dJhd8Rx2d3beLaBj1WtAB4Utp/AEAQDLdyhjs5XBlb8h9oZmD+3SfZBy4/2l5++kH2Z0dPskcf3GAP2m9c4d39qJHDC+H+2/2Z+zv3/7j/98Erji782+4XTqvY512YudY2hu0UARXSo6f0I5gvQB1DAVAZsx0fatucualiyTSp4drItRW6rMgMwP3S/gMAgmC0lSkA7s/+Vjy5JiVmZR+iAKjMDMBMzBegjqEAiN9op6tX7ZYqSKxJCddWrs3QZswFQKhvk/YfABAEk43XZPdX7bY7uEg8qSYtNmQutD9kUWDMBYC5HvMFqGMoAOI12Uezs8STaVLjkcz9zALEWwBcKe0/ACAIBUB8BnuUWmjfLeOgn3oP13auDdFoTBpV+lLMF6COwVzjKwCeyNwnnkSTHo9n7qUAiGsGQOnzpP0HAAShAIjHXKeoZYWLb6QTaNLDtaFrS3QaxwyAacJ8AeoYjDWeAmBG9jnx5FkrMUM9RwEQh05bzOnS/gMAglAAxFMAcOhPdAWAa0t0GsMrgFD/HPMFqGMw1uiN1V1s81bmbPEn51oJ15ZcFhRHoap/Iu0/ACAIBUD0xnqyUuJJs9bipDBkFiDqGQBljsV8AeoYCoDoCwD3zlo6YdZaXME6gOhfAaj84dL+AwCCUABEb6z3Zh8ST5i1Fq5N0WrEBUA2NwXzBahjMNXoC4DHs+z/j7oAeCx7HwVAxDpNtej9pP0HAAShAIi+AJiduVP8ibnW4oXsnRQAEeu0ocU0YL4AdQwFQPQFwIuZO8QTZq3F7MwdFABRzwCE+dHS/gMAglAARF8APJ25Rzxh1lo8meVI4MhnAFTuB5gvQB1DARB9AXAfiwAjLwBYBBi9Tn2lvyftPwAgCAVA9MZ6efZ58SfmWotL1WxeAUQ9A5Ax38J8AeoYCoDoC4BTwox4wqy1+KnKUgBErdXWjm9I+w8ACEIBEH0BMD7UdlNwgXjSrJXoC84vtClajVanXmvuq5gvQB2DqcYTbtuadOKslXg2czfJPxad6q9I+w8ACEIBEE8BcHb2FfHEWSsxTb1GARCDRlMq/yXMF6COoQCIpwBoCLXtzFwmnjyTHvngikJbotPoNTomu+ovpP0HAATBWOOL6epV8QSa9GjKziH5x6TPxqD9zzBfgDqGAiDeeC5zt3gSTWo8m+Xdf5za9IKuT0j7DwAIQgEQbwGwX9hu2zLXiiTQLeoC+86C6+xbS2baN1c8bl/XL9v+jvl2c2fW9nW12E2rl9i+1Uvs5q6Wwp+5v3s9N9u+ufxR+9biu+w7C661W7Lninz2BZnr7ORwJU//MWpzzLJlf4L5AtQxFADxx/6q3QbZG2NOmtMKCfvN5Y/Y/o55tndtzm7YsCGC6LGb1rbbfvOa/cPyh+y7rVfGnvybMzfZxnAFyT9mXTbOsntL+w8ACEIBUJlwC9luyT5h3wyie6Lekj2v8KTukvPG9Z0RJfzBo3edsa/rl+zbi263WzJnR/Z93sicY2/OPsmivwppcpi1e2G+AHUMBUBl47Bwsb0/+1vbO8SDgraoC+1bS++1mzsCu7FnfcWS/kCxsWet7c/PLRQiW7LnD+k7ubZwbXJouISn/grp0Av1u9LeAwDCUADIxIQwZ6eq+XZm9mH7WvZWqzMzConwzeAcuyVospuD8+za4BK7PHNlYSHhM21PF97Xuyl56aQ/YPR0275VC+1zC54sHITUnvmNXRtcXPgu7ju57+a+o/uur2ZvszOzj9hfquZCW6DDyurPU+Ytae8BAGEw3mTE9GVd8gm+yHCfVbq9iEEKgFC/Ie09ACAMRpmMZEEBIN8HtRSeMn3S3gMAwkgbEUEBgAYECoDQbJT2HgAQBvNNRhHCDIB8H9RSeEp3S3sPAAgjbUQEBQAakCgAzBpp7wEAYTDfZBQhzADI90EthRfqLmnvAQBhpI2IoABAAwIFgNJ5ae8BAGEw32QUIcwAyPdBLQUFAABQAFSBGVMAyLdvvQUFAABQAFSBGVMAyLdv3YXSHdgfQJ0jbkQEBQAaEBgHulPaewBAGMw3GUUIawDk+6CWgl0AAEABUAVmTAEg3771Fl5oVmF/AHWOtBERFABoQGAcKLNa2nsAQBjMNxlFCK8A5PugloKTAAGAAqAKzJgCQL596y0oAACAAqAKzJgCQL596y08ZdZifwB1jrQRERQAaEBiHOh10t4DAMJgvskoQlgDIN8HtRV6vbT3AIAw8kZEUACggUqPA0/pbmnvAQBhSMDJSD7MAMj3QU2F0j3S3gMAwogbEVFUG6SXddkNGzZEGut6egoR9c91n5V+rXptb5L2HgAQpgqMiCiiDU5e1BF5ol62rtsuX9cd+c89aVEHfVrtulbmTWnvAQBhxI2IKKoNDmrN256IE/Vrq9bZOavWR/oz3Wc8aEGefq1yXXuhflfaewBAGGkjIopvg8yaaJP1Ne2r7XUrV0f6M4M13fRpQnTdOMvuLe0/ACCItAkRxbfBtREm6/U9G+yRbR32qIUdtrsnugLg6vbV9GlCdL1PLvcxzBegjpE2IaL4NpjUYuyK9dEs2nswv/aDn/twx9pIfubK9T12cgt9mhRNj5m77NPS/gMAgkibEFH6dsCeCBK1W1Ow7WcevCBvc2UWFu4zTVu2iv5MkKa9oOvzmC9AHSNtQkTpbXBrbuivAtb27H6Vvttl4P5uqD/3lhxT/0nT8sRAf0HafwBAEGkTIobWBle2ry753b178neJfqCfeeKizpJfMbjP4BYS0o/J0/K4zMovY74AdYy0CRFDb4OfL+4srLovZsHfb/Nrd5j2HygObs3bhzrWFlVcNK9Zb3+2uJM+TKiOU9mOf5D2HwAQRNqEiPLaoCE09pdLuuy9Zo1Va9Zb3f3+6X7ugB+3z9/tHHCr/Uv9ue7fuH/rfob7We5nup/tfof7Xb9Y0ln43fRfctugIav/CfMFqGOkTYigDdCAjAbGqdy/SfsPAAiC+ZKA0UB9asDL5r+N+QLUMdImRNAGaEBIA0p/T9p/AEAQzJcEjAbqUwMNKvcDzBegjpE2IYI2QAMyGvBacmOl/QcABMF8ScBooD414IV6MuYLUMdImxBBG6ABGQ2kQnOotP8AgCCYLwkYDdStBo7HfAHqmCowIYI2QAMCGjhBqUuk/QcAhLDN6XEkH5IPGqhPDdyZeaTfzk9/HQMGqMPkb5vTf5A2IYI2QAMyGrg1+7i1zU1rKQIA6jD526AJ8yUBo4E61cB16nfWeQBFAEAdJn8KAHkTJmgDKQ1coZ57vwCgCACov+RPAUDyoQCpXw1coF76YwFAEQBQX8mfAkDehAnaQEoD09RrOxYAFAEA9ZP8KQBIPhQg9auB09S8XQsAigCA+kj+FADyJkzQBlIa+JnK7L4AoAgAqP3kTwFA8qEAqV8N/DhsGbgAoAgAqO3kTwEgb8IEbSClgSPDRXsuACgCAGo3+VMAkHwoQOpXAweFSwcvACgCAGoz+VMAyJswQRtIaWByuLK4AoAiAKD2kj8FAMmHAqR+NdAQavtuMJ0iAKAekz8FgLwJE7SBpAZ6gwtK8guODQaokeRPAUDyoQCpbw10Zi4r2TMoAgBqIPlTAMgbMEEbSGpgcXD1kHyDIgBAGDs/3WCbm94aavKnACD5UIDUtwaaMzcN2TtskF5jM9O/Ju2DAHVHuU/+FADy5kvQBtIamJ25syz/YCYAIKHJnxkAEpB0AiJk2+DR7KyyPYQiACCByZ8CgAREAq5vDczMPhKJj1AEACQs+VMAyBswQRtIauCG7FOReQlFAECCkj8FAMmHAqS+NXCpeiFSP6EIAEhI8qcAkDdggjaQ1MA09VrknkIRAJCA5L8lmEYCIgGhgTrWwM9VEH0BQBEAUN3J38XbwXRxAyJoAzQgp4HjVGs8BQBFAED1Jn8XbwbnYL4kYDRQxxoo+kpgigCA2kn+Ll4PzhU3III2QANyGpgQ5uyWmH2GNQEARWIz0/xyj/ctNvqC8zFfEjAaqHMNOB+I32/Sa+z86f+XRAAwADZI/5cN0m9UIvm72Ji5QNx8CNoADchqQGdmVMRvbHNa20z6iyQAgJ2w2XP/wgbpVZVK/i66g4swXxIwGqhzDajMDRXzHNucftnOmrU3CQBgO2zQdH8lk7+LtcHF4uZD0AZoQFYDL2TLvBCo5CKg6RTMH2Ardv60fSqd/F10Zi7DfEnAaKDONfBg9sFKe88mO++8z5EAAAqr/puekigAVmSuFDcfgjZAA7IauFE9WXHvsUH6LMwf6h4bpP+PbU5vkSgA2jLXYb4kYDRQ5xq4SL0oUQDkrU1/qO4TANQ37n2YRPJ30Zy5Sdx8CNoADchq4DQ1T8R/bDDtO9L+CyCKDdIPSxUAr2Rux3xJwGigzjUQ63HAe4rmpqmkH6hrbNC0WKoAeDZ7t7j5ELQBGpDVwP6qXWgGoOlmaf8FEMUG6V6pAuDR7CzMlwSMBtCAfTM4V8CD0k+SfqBusbPTH5NK/i7uyz6E+WP+aAAN2FXBZRIFQFbagwHEsMH1H7HNTe9JFQA3ZJ/C/DF/NIAGbFvmWgkPmkf6gbrGNqfXSRUAl6jZmD/mjwbQQGFBsMAMwMPS/gsgig3SrVIFwFlqDuaP+aMBNFBYD1RxD2puup70A3WNDZrulioAfqqymD/mjwbQgL01+7iEB50g7b8AotjmpiOlCoDD1SLMH/NHA2jAXpydLeBB6a+SfqCusXPSf26bm96SKAD2C9sxf8wfDaABO1XNr3Tyb5X2XoCqwAZNt1c6+W8OzsP4MX40gAYKGjgiXFTZAqC56Vhp3wWoCmxm+tdskH67kgNweeYqg/mRANEAGnAamBDm7LvB9Aol/7R2Z6BI+y5A1WCD9CUVrL6Xn9KaORjzx/zRABrYpoH1mYsr4z/zp02W9luAqsIum/EnNmhSFai+l1l1zpdSSh+N+WP+aAANbNPAwuCa/go8fNwq7bUAVYmde/ZXbJBeFXfyd7/LV2Ya5o/5owE0sE0D07OvnGmDpk0xFgDzbHjxJ6V9FqBqsfPTX7fNTV0xDL4F25K/w1PmZswf80cDaGCbBjylf2GD9HdtkO6O4cn/927Hk6y7AiQAmzn7yzZIz4/wyf9Rq9Kf2f53eMo8j/lj/mgADXygAWVmFPwnSH/VBum2CAuAu22Q/oSYoQIkDduW/qgNmtI2SL9RxsBbbzPpY6wdttfOP98LdRfmj/mjATTwRw3ohz7wnzmXftwGTReWd0ZJ4XXmQRU3T4BawU3bv79DoJRpuXTeBunTd37q38bIcPUnfaW3YP6YPxpAA9vNAAS7XZfUnL7KBuneEpJ/u21uOsW2pT9VEZMEqI+rg6eNtM1N59rm9G9t0PSaDdIrbdC01DanX7bNTffZoOlMm5n2H9amP7Snn+W16P8P48f40QAa2FEDet2A/jM7/THbnB5XmBUI0g/b5vScwn7+oGmxbW56yQbpmTZI/8rOn/btWAwQAKLBb8kfiPlj/mgADeygAaW3NM7JfxyfBahhfGWaMH/MHw2ggZ01kMp2/IO0PwFAjHhKz8T8MX80gAZ21oDXoodjvgA1jK9MBvPH/NEAGthFA8r8SNqfACAurN3LU6YP88f80QAa2GUGINRnYb4ANUpK5b+E8WP8aAAN7FYDytwo7VEAEBN+qPfF/DF/NIAGdl8A6KcxX4AaxQ/N8Zg/5o8G0MDuNOCFZqG0RwFATPihvg7zx/zRABrYbQGg9GbMF6BG8ZT5PeaP+aMBNDCQBlKt5rPSPgUAEZO29kOuwsf8MX80gAYGLACyK/8V8wWoMfxM/u8xfowfDaCBPWtAe9JeBQAR44e5SZg/5o8G0MAgGjge8wWoMbgDAOMn+aOBwTTgKX2etFcBQMT4oX6IBEACQANoYBAN3IX5AtQYvjLtmD/mjwbQwCAzAC9JexUAREjD4sV/6u77xvwxfzSABvZYAIQmh/kC1BC+0t/D+DF+NIAGBl0DEJq3G2fZvaU9CwAiwgvNcZg/5o8G0EAxGmjImC9ivgA1gh/qqzF/zB8NoIGiCoCw4zvSngUAEeEr/TLmj/mjATRQjAZSLXo/zBegRvCV7sH8MX80gAaK0YAXmp9JexYARMCYlo6/wvgxfjSABorVgBfqyzFfgBrAa8mNxfwxfzSABorWgDIPSPsWAESAr/QvMX/MHw2ggeI1oOdhvgA1gBeaOzF/zB8NoIHiXwGYVdK+BQAR4IcmxPwxfzSABoouAJR+r7Gt7aMYMECC2We2/bCvzB8wf8wfDaCB0jSgvyLtXwBQBg1Z/U8YP8aPBtBAqRpoaMn/D+YLkGAalGnE/DF/NIAGStVASumDpP0LAMrAU/oMzB/zRwNooFQNeKH5FeYLkGB8pW/H/DF/NIAGSteAvlravwCgDDyl52L+mD8aQAMla0DpRzFfgATDHQAYP8kfDQxRA0ravwBgiIzJrvoLzB/zRwNoYCga8JRZi/kCJBQvk/sPzB/zRwNoYGgFgH7vmCD4iLSPAcAQ8LK5KZg/5o8G0MBQNTB+QedfY74ACcQPzWmYP+aPBtDAUDWQUvn/J+1jADAE/FBfh/lj/mgADQxVA57KT8B8ARKIr/TTmD/mjwbQQBkaOF7axwBgCHjKLMH8MX80gAaGPgNgpmO+AEnD2r28UL+B+WP+aAANlFEA3CRtZQBQIhPmdX4O48f40QAaKFMDT2C+AAkjFea/jvlj/mgADZSpAU4DBEgaftaMxPwxfzSABsrRgKfMGmkvA4ASSYXmUMwf80cDaKC8AoDTAAESh6/MVMwf80cDaKBcDYxp6fgraT8DgBLwlL4C88f80QAaKFcDnAYIkDB8pe/F/DF/NIAGytWAFxpf2s8AoAQ8ZZ7H/DF/NIAGytZA1hyG+QIkCE+ZLOaP+aMBNBDBDMDPpP0MAErAC00O88f80QAaKLsAUPpczBcgQfih2YT5Y/5oAA2UrQGlr5X2MwAoksZZdm9f6S2YP+aPBtBABK8AZmG+AAmBewAwfRI/GohKA25BsbSnAUCRpLId/0ACIAGgATQQkQZCzBcgITRkzLcwf8wfDaCBaGYAdF7a0wCgSFIq933MH/NHA2ggGg3o1zFfgITQoHQK88f80QAaiEoDjXPyH5f2NQAoggZlGjF/zB8NoIGoNJBS+S9hvgAJwB3diflj/mgADUSmgdaOb0j7GgAUgR+a4zF/zB8NoIHoZgBy38d8ARKAH+ZOxfwxfzSABiLTQNaMl/Y1ACgCP9RnYv6YPxpAA1FpwMvmpmC+AAnAU/o8zB/zRwNoILICoEUfJe1rAFAEvtKXYv6YPxpAA5FpQJmfYr4ACcBXZgbmj/mjATQQmQZazOnSvgYAReCH5irMH/NHA2ggslcASp+L+QIkAHd/N+aP+aMBNBBhAXCFtK8BQBH4ytyI+WP+aAANRKiBqzBfgATgh/oWzB/zRwNoIDoN6OukfQ0AisBX+nbMH/NHA2ggulcA5ibMFyAB+KG5C/PH/NEAGoisAAj1bdK+BgBF4Cl9D+aP+aMBNBChBu7GfAESgBfq+zB/zB8NoIEIZwDuk/Y1ACgCXgFg/CR/NBCxBpgBAEgCnjI3kwBIAGgADUQ4A3CrtK8BQBH4ob4a88f80QAaiK4AMDdgvgAJwA/1ZZg/5o8G0ECEGuAgIIAk4If6HMwf80cDaCAyDSh9qbSvAUARNLSYkzF/zB8NoIHoNKDPxHwBEoDfkj8Q88f80QAaiHAG4ERpXwOAIvBDvS/mj/mjATQQYQFwMOYLkABSYf7rmD/mjwbQQFQaaFA6Je1rAFAEqVbzWcwf80cDaCAyDbTkvov5AiQET+luEgAJAA2ggSg0MKal46+kPQ0AisRT5veYP+aPBtBAuRrwQv3uPrPthzFfgITgK3075o/5owE0EMECwA5pPwOAEvCUPgPzx/zRABooewZAmd9jvgAJws+a8Zg/5o8G0ED5BYC+R9rPAKAEJgb6C5g/5o8G0EAEawDSmC9AwvBC3UUCIAGgATRQXgFgfijtZQBQIp7Sj2D+mD8aQAPlaGCcyv0b5guQMFgIiPGT/NFAme//3/OCrk9IexkAlIiXze9DAiABoAE0MPQtgGYxxguQQBrb2j7qK91PAiABoAE0MMQC4A5pHwOAIeIp/RTmj/mjATQwxB0AJ2G+AAnFC/XPMX/MHw2ggSEVAJncf0h7GAAMkVR25b9i/pg/GkADQ9j+9zYLAAESjq9MOwmABIAG0ECJGpgj7V0AUCaeMpdg/pg/GkADJW4BPBfzBUg47j0e5o/5owE0UIoGGrJmhLR3AUC5WLuXp3SeBEACQANooLinf/PWyHD1JzFfgBrAV2YG5o/5owE0UKQGZkt7FgBEhN/a8Q3MH/NHA2igyBmAUzBfgBrCUyZLAiABoAE0MJgGUq3mb6X9CgAixFf6RMwf80cDaGCQ1f+tGC9AjTFe5T7jhfoNEgAJAA2ggT1o4GxprwKAGPCVvh3zx/zRABoYSAPjVO7fMF+AGmR8S/5ffKW3kABIAGgADex6/K9uk/YoAIgRX5nnMH/MHw2ggd28//8F5gtQw6SyuXGYP+aPBtDATsn/vTEtHX8l7U8AEPfJgKFZSAIgAaABNLDd9P8zGC9AHeBlc1Mwf8wfDaCBD/b+q9xEaV8CgAqQtvZDbr8vCYAEgAbQgB8as89s+2HMF6BOaFCmEfPH/NEAGvCV/qW0HwFAJbF2Lz80igRAAkAD9asBdzjYhHmdn8N8AeoMP9SetAERtAEakCwAzPXSPgQAQnhKP4UBk4TRQP1pwAvN236ov4L5AtQp4zK5r71vBPKGRNAGaKCSGtC3SPsPAAjjKzMD4yX5ooH60YAX6nfHhp3/KO09ACBMqtV81lO6W9qUCNoADVSqADB3SvsOAFQJnsofjvmSgNFA7WvAU+YtP5P/e2nPAYAqwlf6aWlzImgDNBC7Bi6S9hoAqDLGZVZ+2VN6MwZMEkYDNaoBpXtGteX/XNprAKAKaWgxJ4ubFEEboIFYNOApfYK0xwBAFd8T4Cv9CgZMEkYDtaUBL9RtxwTBR6Q9BgCqmPELOv/aTRVKGxZBG6CByJ783/OV/p60twBAAvBCPRnzJQGjgdrQgBeaK6U9BQAShDspTNq4CNoADZSb/HVXY9D+Z9J+AgAJorFt7ac8ZZZgwCRhNJBcDXih8aW9BAASiNea+6oXml5pEyNoAzQwpOR/g7SHAECC8bNmvK/0FgyYJIwGkqQBvczN4kn7BwAkHD80Z8sbGkEboIGiNKDMHxrC3L9L+wYA1Mj5AJ4yj5GASEBooPo14A70kvYMAKghxsxd9mk/NKG0uRG0ARrY49P//cOs3UvaLwCgxmjImC/6odEYMEkYDVSfBjylW0aGqz8p7RMAUKM0ZPU/cVKgvNkTtMGOT/66Z8IC83fS/gAANU6qxfy3r8ybJCGSEBqoBg3odxpU7gfSvgAAdUJK5SZ6oXlb3vwI2qC+NZBS+mhpPwCAurwzQL8jbYAEbVCvGvCU+bW0DwBAndKgTCNFgHwiIOqxDfTV0uMfAOocP2sOK1w5Km6IBG1QHxrwlJ7pzueQHvsAAMNSoTmUmQD5xEDUfht4oX64sa3to9gOAFQNfqg9L9RvSBskQRvUrAaUuf+YIPiI9FgHANgFL5vfxw/NJnGjJGiDGtOAF+r79pltP4ztAEDVkmo13/SUWSttmARtUCsa8JS+h+QPAFWPtcP2WpS5+u7j1AJx4yRog6RrwFP6Chb8AUAikr8N0tfYoMluDs6zZ6i54gZK0AZJ1MD4UNsHsw/02fnpr0uPawCAopP/tng3mG6vzz4tbqYEbZAkDTSG7XZu5pb3x1Fz01qKAABIVPLfPh7NzrITwpy4sRK0QbVr4NBwiV0eXLXjGKIIAIAkJv9t0Za5zh4WLhY3WII2qFYNTFXzbU9w0e7HEEUAACQx+W+L3uACe5aaI260BG1QbRq4Sj1j3w2m7XkMUQQAQDVgbfpDNkjfVGzy3xZbgib7QPZB2xBqcdMlaANpDeyv2u0rmdtLGEPpNTYz/WvS4x8A6pRSn/x3F9nMjbwSIAHXdZyisrYzc1np44eZAABIavLfFv3Befay7AviRkzQBpXUgFsQe1v2cftOMH3o44ciAACSmvy3j1czt9kpahmJmERc8xo4WrXZhZlroxk7FAEAkOTkvy3c6uemLAsEpRMUEU8buDUvN2Sfsm8FZ0c7digCACDJyX/7mJe52R6uFpGISMY1o4GTlbJLMlfHN24oAgAg6cl/W7wenFt4WnLHoUqbN0EbDFUDPwxXFA7Bem+w7X0UAQBQbUgk/+1jReZK+zOVIQmThBOngenqVbs+c3FlxwwzAQBQC8l/W2wJptnns3fZQ9UScVMnaIPBNPBzFRROvRQbMxQBAFALyX/7eDM4p3CAkDs4hURMIq42Dfw4bC3sZpEeJxQBAFBTyX/76A4uKhybyvoA+aRHmMKC1acz91TmPT9FAADEm/ybbhQ3ryIiH1xROESIQoBELFGIHKUWFhb4vZWJeFtfpJFeY+dP/784JgAMig3SF8ibVmnRFlz7UEOYu9ML9bs8kVIMxK2BE7LqPbcm5d1yTvGrZDSntc2kv4j9AcCA2Ex6krhZlWxuTbe6S4nc5/dac1/1Q3OXH+p3KAQoBKLXgH7RD/Nj7Pz0f9qgaZO49ksrAl62s2btjf0BwK7Jf955n7NBujupyX97Jgb6C74yTb7SPRQCFALlaMBTps8LzfWp7Mp/3WG8NE/7ng3SfQkbL6dgfQCwawEQNF1ZC8l/exrb1n7KV+YYPzSLKAQoBErSgDKLf4JTiwAABUlJREFUfWWmplrNZwecMUteEbDJFfrYHwB8gA3Tf2mD9Bu1lPy3J23th7zQ+F5oHmedAIXAgE/7oen1lLnZV/p7xWoreUVA+iysDwA+wAZNp9Zq8h/g9cBUL9TLmRWgGPCV+YOnzGOp0Bw6Mlz9yaFoKllrAtL5csYPANQYtjk9px6S/45f2u6VUrnv+8rc4SvdTzFQP8WAmwXyQvOC16KPGq9yn4lETomaCZj2nSi+MwAkHBte/EkbpN+uq+S/E/vkch9zrwhcMeAWfUknKCKONtCvuyd9tyZkXFvuf8eho8QUAc1NU+P4/gCQMGww/V/qOfnvjBd0fSLVovfzQn0fMwMJL0aUafeVmdGQNSMa29o+Wgn9JOR1wM2VaAsAqHJs87SRVWBIVZH8d2af2fbDXmj+ywvNBb4ygXhCI/bYBp4ya7zQzCrs/FDmn4cJUf1FQPpJqbYBgCrCzm86RN6Qqi/57w4/1F/xQ3O8r/SjvCqQL0i80Kzylb7XU+bYhpaVVXXcbXW/DkhnpdsHAKoAOz99gLwhVX/y35nGWXZv95S59WnzDj80Rjoh1sGBPK+6KX23Yl/yCb8GZgLmSbcNAFQBtjn9/SowpEQl/4EYG3b+o6fyh/uhvs5Teq4X6jekE2fiQuktXmhyvjJP+spcnFL6INeubtfGsARSnUVA+mHpdgGAKsDdFCZvSMlP/nuaJXBJzFPmEk+Z5917avEkWwXhKfOWO4vBrcz3QnOhnzWHNWTMt9zpjcNqjKp7HdDcdL10mwBAFWCD6z9im9P94qZUY8l/T4yZu+zTqVbzzYYwf4Af6jO3XmA0zw/1+hp6ku/3lV7qh/p3Xmhu8FvM6a4QcqfspVT+S+50xmF1RJXNBJwg3R4AUCXY5qanxE2pTpJ/MWcSpFrN327dffBDX5mf+kpf6ooELzTP+qGe7xKrp8xad4pd/IncvOkp3V3YUhca9f57eP20H5q7PaWv8JT5dUOYO6JwjkJL7rvjVe5v3FZK6XasRqpnJiD9Vem2AIAqwWaaDif5J5PGOfmPu4Nt3FXIblbBhZfNf9vtfd8WXqgnNyjTWIgW07D93zW05P9n278rRJj/ukvi7hIctw1S+vvVGvJFQLpVug0AoIqwQfoTtjm9jid/gBp/HdDcdCx9DAA7YIP0r5j2B6jhmYDmtLaz0x+jjwFgB+yyGX9im9PLKvgkwjt/qGsqXgTMnzZZ+jsDQJViM9O/aZub3iL5A9TY64DmplvpUwDYIzZIT7HN6S08+QPUTBEwz936SX8CwKDYoOl429z0XvRGlL6GrX4Auxtz6e/aIN0dw5P/7+2c9J/T5gBQNLZ52njb3LQxosT/tg2aTqX5AfYw5oL0V22QbouwALjb7fChzQGgZGzm7C/boOmRMpP/fJtJf4vmByhizM259OM2aLqwvLU46VU2aDqI9gaAsrHBtP/eWgi8U9y0o1tDkH7VZtKTmPIHGMKYm3v2V2xz+iobpHtLSP7ttrnpFNuWrrn7FABAGBukP2/nNx1ig/R1Nkg/7u4Vt0GTsUHTAhs0/a6wta+56Vir0n8j/VkBagG3b982p8cVZgWC9MO2OT2nsJ8/aFpsm5teskF6ZuEMj/nTvi39WQEAAAAAAAAAAAAAAAAAAAAAAAAAAAAAAAAAAAAAAAAAAAAAAAAAAAAAAAAAAAAAAAAAAAAAAAAAAAAAAAAAAAAAAAAAAAAAAAAAAAAAAAAAAAAAAAAAAAAAAAAAAAAAAAAAAAAAAAAAAAAAAAAAAAAAAAAAAAAAAAAAAAAAAABgWE3x/wML7VDwUVRC+AAAAABJRU5ErkJggg==;" vertex="1" parent="1">
          <mxGeometry x="720" y="81.5" width="71" height="71" as="geometry" />
        </mxCell>
        <mxCell id="8pqZ917RF1C_p-31OUPB-15" style="edgeStyle=orthogonalEdgeStyle;rounded=0;orthogonalLoop=1;jettySize=auto;html=1;exitX=0.5;exitY=0;exitDx=0;exitDy=0;dashed=1;dashPattern=12 12;" edge="1" parent="1" source="8pqZ917RF1C_p-31OUPB-6" target="8pqZ917RF1C_p-31OUPB-3">
          <mxGeometry relative="1" as="geometry" />
        </mxCell>
        <mxCell id="8pqZ917RF1C_p-31OUPB-6" value="" style="shape=image;aspect=fixed;image=data:image/png,iVBORw0KGgoAAAANSUhEUgAAAgAAAAIACAYAAAD0eNT6AAAACXBIWXMAAAsTAAALEwEAmpwYAAAgAElEQVR4nO29CXRcR5m37xBg2IaBgZnvA2Y+htk+mGGYmT/wwQwzE4h3973yFoXE2ciekJAQApiEJC07+x6Tfd+dxEnIvpDNWY1t3e66kuXdcle1JK+SLctKQjbX/1THDt5kdavv7bdv9/Oc856TY8dSd9Wvfu9769YybBgAAAAAAAAAAAAAAAAAAAAAAAAAAAAAAAAAAAAAAAAAAAAAAAAAAAAAAAAAAAAAAAAAAAAAAAAAAAAAAAAAAAAAAAAAAAAAAAAAAAAAAAAAAAAAAAAAAAAAAAAAAAAAAAAAAAAAAAAAAAAAAAAAAAAAAAAAAAAAAAAAAAAAAAAAANQEjW1rP+Ur889+1oz0QvNDPzTHe8r82lf6Uj/Ut3ihfthX+mVfmcAP9TJfmfZChHq9r8wGF16o3/VDYz+IrX/+wd8rs+aP/84oPzRzvNA86yvzgBeaO73QXO+F5kIv1GlP6RMawvwBXosensqu/NeUyn9pn1zuY9LtBAAAkCiOCYKPjG/J/0uDMo1eqH/uKfMbX+lH/dCEhQS9feKu5lC631N6hR/qF31l7vCUPs/L5n/sh9pzhcKEeZ2fk25rAACAipO29kN+Jv/3KZWb6Cl9hhfq+7xQt3mheVs8eVesSHCzDXru1gLhDF+Z/RvC3L+PDFd/EkkCAEBN0LB48Z96ofkvX5mpnjKP+Ur3iCfgKg4vNKvebyfT5GZD3GuPYdbuJd2PAAAAe2RiuOIvfaUP9pW5sfBkr/R70kk16eEp3e3WInhKn9ugdCrVaj6LDAEAQJR9ZtsP+0p/zw/1OV6om0n4FSkI3nPFlR/q61KhOTTVav6WYQAAABVZke9lc1O80MzyQrNR+gmZKBQFKzylr/GzZrx77cIwAACASGick/+4F+rJ7yd9/QZJt3oLD7eg0lP6Jb/FnO52VjAEAACg5BX7qWxunB+auzxl+qQTGzHUNnDnIujzGzLmWwwBAAAYkHFtuf9dOGQnNJqkW1uFhxeanDs8iWIAAAA+INVqvlnYm15Pe/LrOxa57Zl+a/v/YhgAANQZjW1tH20Ic0f4yiyugoREyK0ZeMQtIHS7OqQ1CQAAMeJOnWtoMSd7SudJvBQe2xUDq9whRBxZDABQY4xqy//51stsukn8JP4BNaB0v6/0teMyua9JaxYAAMrAC7o+4YfmNC80vSR+En/RGlB6ix+aJxrCju8wAAEAEraV7/0b9kyOxE/iL3OtwLMUAgAACcCdG//+kbEkPtogUg084WXz35bWNwAA7IQf6q84kybpUfjEunvA3VoY6q8wAAEAhHFbuLau7N9M8if5V2YLoX7DC80FY+Yu+7S0/gEA6hIvNP/lK72AxE/iF9s+mDWHDbN2L+mxAABQN5f0+KG5autqbd510waiGvCUeX7CAvN30uMCAKBkjgmCj7i9z37WjHRPNO5MfC80F3qhuf790Pe5G/F8ZW70Qn25r8xP/VB7EgenpML81z2lW0h6FD7VpIHCbZHKTG2cZfeOQ/de0PV5N+Y8ZU7ZOgZv3HpL5X1/HKfmQjd2U6E5tCFrRrgx7cZ2HJ8HABKK15r7qh/qn/hK3+6HJhzyOfjuCbxwnK6+xW/JH+iezOPc2ucM1lPmLWmzJ2iDPRQCza5IjeQq6mxuihfqWz1llpQxO+HGi/JCfZuv9Iljw85/jGZEAkAysHavVIv5b/eUEOdtd+7AHfc7xmf1f0b58ccv6PxrP9QvknhJvImZDQjN8UPRuq/097zQ3BDz4VXaD/V1bg0N6xcAavkIXDedr/SKipug0nO9Fj283O/Q0JL/H1+Z1dKmTtAGQygEHi72NVnh9Vuo51deZ3qZOy1zvMp9ptyxCgBVQKrVfNZTZrofmk3VsEBqqCepeaH5mR/qd6S/A0EbDF3/Ou9m3wbSuN+S+64XmhekNeaFZqO7L6MxaP+zsswHAORwR+D6oV4vbSg7hNJb3KuBxra1nyrmO+yTy32s8M5S+nMTtEEkGtDvuPUrO99T4c4S8JR+r6p0pswGX5ljYjMoAIiehoz5oqf0U+IGsodwryIK7x0Hed/PKn/5viLiaAN9nVuVv/W1Vns1t7EXmscnBvoLeDVAlePOKPdC3SVtGkUZy/tPPGfvbvGRr8w/uylT6c9I0AYx6r+j6p76BwqlO1Kt5psyrgYAg5Jq0fttXXUsbxglmYt5YGS4+pPbvkeDyv2Aa3uroF8I2mD7gqXgLblJWDFAleGp/IQh7+Gvjgi9oP3/eKGe7CvzZhV8HoI2QAM7acB5TEOLaZD2OwDYiqfMqFo4FMdTuQ0c6SvfDwRtsEcNKPNmFNt6AaBMti6U68a0h27ak1ry9uQlXfaC9jX2zo719rk1G2xLzya7vLfP5jdttus299vXX3/d9mzut6v6NtuVvX12wYZN9rX1G+19nd12Rm6tnbp0lT2wNU/yjDl5TlmQL7S1a/NZnd2FPnB94frE9U3P1r5yfeb6zvWh68tn12ywd3SsL/TxyYu7Cn3OmCmjL5TZMF7l/gYDBxDCrSL2QvMaRlaaeY1vMfbUpavsLfl1dl53r924NWmUG/2vv24Xb+yzD3R126blq+3+FARlJ1nXhtNWrC606ZKNfYU2jqKvXJ/PW99rbzbrClpwmmAcldoGel5jW9tHSQAAArjDOjCt4g3r+EWd9vaO9Vb39kWSRAaL3v5++8q6jfbc9jV2Ak+cJRVopy1bZZ9es8FuiKg4Gyy6Nm0uFBknLe6iEChhTHlKn4H5A1SYwpn4SvdTAOzZoCa25O2lK9faRRs2VSSRDBSr+/rtvZ3d9pAFHSSYAfrqkLaOQhu5tpLsq4UbNtlLV1K0FVUAhPqNcZmVXyYBAFQQd/UnyX9gY3LveK/IrS28B5ZMJjvHpv7+wpPt0Ys6KQS29tURCzsLT99RvYqJKkxvn71Gr7OTeZUzmFbvxvwBKoS7xjMxB4hUOBpCYy9sX1OY0pVOIIMVAm4BYWMdvxpw7/fv7+y2ff3Vlfh3js5NmwuLB6Xbq1rDedGEBebvSAAAFcAPzVXSg74a45hFnXbu+l7xhFFKuELl4jpMLm6RZLXNzgwWzet7C+tIpNuuKkOZGZg/QMyMmbvs057Sm8UHfJU99d+aX1/1T5J7ilfXbbQH1cH6gIMXdNg5CSvSdp65cTsHGqqgLaspPGX6GhYv/lMSAECMpJQ+SHqwV1MctCCf6ISyfazu22xPX7ZKvE3jCrd/302nS7dzFNHc3VtYtCjdptUUDWH+AMwfIEbcufnSA72aEkpXX20klG2xuf/1wmxGLT1huu9ye3594btJt2/Ur2+m1nDBVnIofS/mDxAT++RyH6v01j/v1TY77uEX7Ni7HrLjHnzGes/NdwNd3GzOXrHGbkzwlP9g4XYK1MLZARNajH1idY94e8b5SuD8aljDoXRhbLoxWhirD79QGLuVfg3AwUAAMeEr/b2KDOb5y+yYy6+zIw493O47fLjdd999d4jhEybZUWec/X4xIGB2V+l1kZ0IV83hDhHaL8Fb0Nxnd2sbpNsx7nBavN6sE2lj79l5hbE4YsKkXcapG7sjDjuiMJbdmK7E52kIO75DAgCIAS80P4t7AI+77X47fMLEXc1kNzF85Eg7uul86wftFTO82/LrxQ2/kpHt7rWNCSwC3PZG1V0bazOKDXe0dMXaOJuzo9PnFcZgMWPVFQhjb3+gAp9N/wTzB4gBT+mZcQ7e0eddttsn/sFi5JHHWu+1+Kcbr9RrxU1eIuZ39ybq8hp3+mKtLMwsNdzBQRVpZ5UrPN2XNFaHD7ejz7887s92F+YPEAOe0i1xDdwxl15TcuLfoQg44phYZwLce9Z6mPYfKNxtdklYGOg+o7tNUbq9pMJp9LwKrQlIPflq0TMA20fhlUB8n0th/gAx4IWmN45BO+7B3w3pyX/nKLwOiGm1v1tsJW3u0jGrq1s8wQ8W7khf6XaSDncJ1C+XVmZ3QGHWrtSxOnyETf322Xg+kzIbMH+AiBmvcp+JZ8BqO/KIo8tO/oUYMdJ6z0a7MNAdjlPtx/pWMtzuB+kkP1Ccu2KNePtUS6zq21yZi5+Cdjv8gINKHqsjDjsytt087rAyEgBAhIxvyf9LHIN13Kynokn+WyP12IuRTicn7WjfuGP95n575MLqO472qIWdtrvKLvOphrUb7mrjuNs+9eAzQxqr4x74XTyfSZl/xvwBImR8Vv9nHIN19FnnRpb8R554SqSfzR2II23i1RgtPZuq6owAt+hvQY/sdcvVGjdVaHvgqJ/+ompe2fktue9i/gAR0pA1I+IYrCMO+VEkyX/4uJT1Xgoj+1zHLepM9Nn+cccNQvvOdxfubHzp9qjWcGtXjq3AjI33QsbuO3p0aa8BDvlRTJ9H74v5A0SIFxo/jsE63B8fSQEw9oa7Iv1cbvpU2ryrOTZs7rdHVMGrgMMXdtoepv4HvUWwEjs4Rp9zSWlFe8P4uAoAD/MHiBBP5SfEMVj3HTWq/Kn/o38c6YKii9pZTFZMEfDC2g3iBcDLdXDSXxRRkeOC5y21wxsmFD92R42K5XM4r8L8ASLETavFMViHT9qvvALAbSl68tXIPs/k1jyr/ktILG6LpFTydzcXSifWpETHps12cgXWbYy57NriXwHst38sn6FB5X6A+QNESKrVfDOOweqe3sspAEadeU6kn+dqzfvkUhKLe1UiVQAEvKYpqa9+k1sbf7/MX1b0LMDIY34cTwEQ5v4d8weIkAkLzN9JPzHsEp4f6RHAbmW77u0Tf1pLWvxcYBbg1KU8/ZfaT6a3r7BjIu6+GX3J1UWN3zGXXx/L7x+vcn+D+QNESOOc/Mf9UL8T9WBNPTe/MI0/lAJgzNW3RvpZLltZn2f9lxvuxr1KFwD1etZ/uXHJyvjXAnhzl9rhXsPgh3Y9H0T/u0Pztru2HPMHiBhf6QVxGMao09IlJ//hP5xi/ezKSD/Hog3sJR/q+fNHL6rcjoBjF3WKJ9KkxsINmyrSR6MvnLHnV3e/nh7X7w4xfoAY8JW+PY5Bm3q5Zff3ie8h3LXBUX6GH5NUykost3esr1gBcGcHBzSV01dO63H3kRvT+w5wUdDwCZOs98qCmH63vgXzB4gBd9d2XIYx7pEX7PDRY4pbPXzwYZGfI+4uupF+OktyuLUTldhr7n5HjnUaZfXVPZ2VudRp1M9P3zX5jx4T6XHdO4en9AmYP0AMjMus/LKv9Ja4Bm/qiVeK2hY47p7HIv297rx0LvxJxmJAt+1QuthJenRu2lyROwLGPfzCLk/+qUdnx/c7ld4yfkHnX2P+ADHhKT03TtPwXm61o05vGnBh4Mgjj438d7KiPJrEcm8FnixndTJTE0Vf/XRJV+x95cLd+ucW/I3+9fQYp/23ekdoXsX4AWLED3OnVsI43ArhMZdfV9grXJgVGDnSDh8/waYeei7y33VLnr3/USQVdyFP3LpgoWY0xdqNFbrLwR3SFcdq/92GMj/F/AFiZMK8zs95yvRVZEBXKOaVcaBMf3+/nTNnjr3sssvskUceaSdNmmRHjRpl999/f3vSSSfZO+64wy5fvlx82rcSsbn/dXtAa3z7zA9szRd2HAz183V3d9vHHnvMnnnmmfbQQw+148aNK4T7b/dnjz/+eOH/kW7HSoTbRik97qIMT+nNXtD1ecwfIGa80FwoPeCjikktebtxiJfJzJ071x577LGDL1ocMcKef/75tqOjQ9z4447pK1bH1lfnrBjaHQ19fX125syZdsKEwU+omzhxor3nnnvs5s2bxdsy7sucnPalx19kofT5GD9ABfBb2/+XH+rXxQd9BHHykq4hGahLEsOHDy9p6+J+++1ns9msuPnHGTNjXAfgVq+X+nncE/3UqVNLPmfi1FNPtWvX1vbBUCctrsw6gPhDvz4xXPGXmD9AhfCUPkN+4JcfFw7h5r9rrx368cVjx46t6SJgdow3BL60dmPJyf+oo44acl+5f9vT0yPepom+IXBbqPh+theaX2H8ABVkn9n2w74ygXQCr/ShMk8//XTJT/67mwno7KzN0+yWbuyLra+Wl7j//4wzziirn1ycddZZ4m0aV9yer9zhTbElf2WyxwTBRzB/gAozTuX+zZ29LW0C5cRzazYUbZjuaXDy5MllJxUXF1xwgXgCiCN6+/tj2WM+ocXYTf3Fr9V46aWXIuknF6+++qp4u8YRz6zZkPTk/5bf2vENjB9AiIYwd4S0EZQTLT3Fn/9/5513RpZU3MLAFStWiCeBOOJHbR2R99PhC0ubMTnmmGMi6yu30FO6TeOIsCfZOwE8ZY7F+AGE8ZW+VNoMKjGtXM775N2FKyikk0AccVwMZ82XcleDK6yi7CcX7e3t4u0adSyL8XVN7Mk/NBdK+x4ADBs2LG3th3xl7pc2haFEx6bitnt1dXWV/e5/53DnBEgngTjilBhOmSvltMb77rsv8gJg1qxZ4u0adeQ3bRYff0MKpe91noP5AlTVosB4bguMM7qLPAMgk8lEnlQOOOAA8SQQR5y+LPo7AX69rPgC4De/+U3kfXXllVeKt2vUsX5zv/j4KzW8UN/aOMvuLe13ALC7mYDQXCVtEqWEO72uGLOcPXt25Ell9OjR4kkgjjh7RfTby9zPLPb3T58+PfK+cj9Tul2jjr7+18XHX0mhzIxh1u6F8QJUManQHOqF+g1xwygi3IloxZ76F3VScccGSyeBOOLMZdGfBnjW8tVF//5LL7008r5yRz1Lt2vU0ZOUGQBl/tDQYk6W9jUAKJJUq/mmp8xKcfMYJFb1FbcGwJ3nH3VScYsKpZNAHPGLGK4F/mUJawBuvfXWyPvqtttuE2/XqMNdgZ2A5N/eEOb+HeMFSBiNQfufeaG50gv1u+JGMkCsLHIXgLv0x13wE2VSmTFjhngSiCNOiGEXwE8WF39k8/z58yMvAIIgEG/XqGN5Fe8CKHiGMjPGzF32aWkfA4AycBW8H+p50qayu1i4ofhzAC6++OJIk8q8efPEk0AcceTC6AuAo0vYBugu8nGX+kT5qsYVgNLtGnUs2LCpOpO/MtmUyv8/TBeglhYItuQP9EOzSPLc8J3jtfXFny/v9oK7q36jSCrHHXdcTSYVd13vfjFcCdxY4lXAUR7adPfdd4u3axzxyrqN1ZX4Q93mK7M/W/wAahQ3uL1sboofGiVtOC7uL/GGuSuuuCKSUwCbm5vFE0AcYXr7xM9scLFhwwY7ZcqUsvvq4IMPths3lnYJUVJiVld8NzeWFMpkGsL8ASR+gDqiIez4jqfMzZJXC/8mV9qVr5s2bbInn3wyT5QDtM/c9fEdLzu/u7ekvlqyZIlNpVJD7iv3bxctWiSeqOOKy3NrBZO+7veVudHL5r8t7UMAIIhb6OOF5odeqO/zsmZzJY1oagmry7fF6tWr7YknnlhyQnEnCd5www3ixh9n/DbGp8qHV5V+Na/bvtnQ0FByX40fP77wb6XbM85wOyuEkn9Pw+LFf4rpAsAOjA21V0kzmrKgtHfL26K3t7fwOqDYNQHuCuBnnnlG3PST/FQ5o8TZmu23cJZSsLkjmmv1oqZt4TR/YAxrNYqNieGKv8T6AGAHfGUurrQZLd5Y2j3zOyeXSy65xDY2Nu72id/dJHfXXXcV3klLm34lwq3Wj6ufjinxRsCd44UXXrCnnXaaHTt27C595f7s9NNPty+++KJ4G1Yi3O4XqeTvwsvm98H6AGAH/NCElTajB7pKWwi4u3Ar+l0x4Lb2uUSTzWbtqlWlv15IclTicplSFgIOFK4Yc+/2X3nllUK4/66XAq1aFgCmlD4a6wOAD/CCrs97Sr9XaTOatqL4Y2aJgdvgydUbYu+r362pr0QdV7ijlSULAD80F2F9APABbiuQhBnt35q3G2twT36l4/z26C8B2jkubC/+UiBi922wcXN/4VwFyQLAC/XDWB8AfIDkTYLP82RZVsJ01yrHcQDQzuESl7vEhuQ+9L56Zk38MzWDFwBmIdYHAB/gKxNIGVJTCbfNEbu2wRMVmP7fFk9TrFXdbY0lhzJvcrUvABTwgq5P+KF+R8qQJrQUfzMgsWsbuPMUKtVXpy+rr8WVUcbqvs0FrYsXAG4WIOj6PPYHAMNSKvd9aUO6t8RjgYk/3irXUMF+cr+rvYytm/UcMzur5PhfF60d38D6AMBN/0+VNqSDF3QUFkhJm3TS4tKV8S/+2zkuXzm0Q4HqOdxC10PaOuQT/weRH4P1AcAwdwywvCGZwlG20kadtMt/JrZUfkX5hJa81b3MApTSV+7iK+nxtWPoI7E+ABhW1DXBFYgftXXYTWwJLDqpuMuUpPrqGr1OvABKSvT199vDF3ZWWwFwJtYHUOc0zsl/3Av1u/KG9H7cx1qAopLKio19dpLA0/+2cDMPK5gFKKqv7qm6p//CToAZ0t4DAMK4K0HFzWi7aGzJR3LkbK3HaVK3yW0X7Ago7ohm6YN/dhdeqG+T9h4AEMZT+cOlzWjnOI8T5/aYVJ6tgsNktsXzazkeeE99dfaKyi/SLC70Q9LeAwDCeKG5QN6Mdo1X120Uf8quxli7ud8eWkWryd26jfXs3thtX728bqN4/+whZkt7DwAI4yvzQBWY0S5x0IK87eRVwC73yE9fUQUnye0U6eWrC59Nujiqtqn/KQuqb+p/W3jKZKW9BwDq8ArgYmPqslV2c7+8mVdLuAWS0n0yUDzIFs4P+qmv/3X7yypYozFIAbBS2nsAQBJr9/KU6ZM2oz3Frfn14om3GiLs6RXZ819suB0JrT2bxNupGuIms068PwYtAELdhfkC1DETA/0FaSMq5ujZJ1b3iJu6ZKzs7bOHLKie9/57em3jjiaWbi/JcJclVfJo5qGHXiftPwAgSLVtARwoxrcYO7tOV5uv7uu3xyyqtkNkBo6jFnbarjq92OmVdRur5rKfwcILzUbMF6COaWgxDdJGVGy4++6z3b3iJl/J6N7cb3+yuEu87UuNkxZ3FT67dPtVMjLdvXZyFe73HzCU7pf2HwAQxAvNceJGVEK4A1XmrK+PIsBdj5zE5L8tfryos252cczr7i0cYCXd5qWEp8xbmC9AHeMr0yRtRKWGWwj3zJrafh2Q6+2LfNrfe3WBTT0zz6Yee8mOu/8pO/auhwrh/tv9mfs79/9E+TuPXNhZOLJYuj3jjN+t2VC4HEl6XJQcSm+R9h8AEMQLzfXiRjSEcIusZnV11+Tec7fa312NXE77pJ56zY75zY121K/SduQRR9vhnm/33Xff4sLz7YjDjy78W/cz3M8q57O4xYu1uDvAae/ezu6ELPjbNTyl38N8AeoYX5n7pY2onJi2YrVdVyPvml1CeaCre2hb/ZS24+593I6aeqYdMWFS8cm+yHA/c9Qvzyz8Dve7Sv18bmGcuxCnVgo2t77h3PZqPeK3yAIgNG9L+w8ACOKF+hlpIyo33DWrKuGLAwsJZShnxs9basdcfr0dsf+BkSf9AYuB/Q+0Y664ofC7S/28TctXF44ylm7vcmJBz6bCTgdp3ZcdyvwB8wWoY/xQzxc3ogjCvYO9wayzPQlMLu5in6Gc7T/u7kfs8En7VSzx7xzDJ0y0Y2+cWfKMwGFtHfa5BK7hcNq6Xq9L5vv+3YQX6jek/QcABPGVXiptRFGGS6TuIBbpZFFMuMVxZywr/bhY75UFduSxJ4gl/p1j5LEnWu/VtpK/x9Slq+yyhCwQdPv73UyTtL4jLQCU3oz5AtQxXmhWSRtRHOGSS3OVvhbQvX32Sr12SO/6Uy9k7PDJjeJJf5fZgP32t97s7JCOD75Kr7Omt69qt/e5+yik9RxTbJL2HwAQxFe6pwqMKLY4demqwtNbf5Vs7btGryskvaF8F2/eUjvigCniyX6gGHHgQdafv2xI381Nq1/cvsauqJJCYN763oJ2pPUbayizAfMFqGOq/SKgqMJN395o1tn2Ck85b9zcb59fs6Gw+M0dZ1zOdxg17ULxJD9YjD774rK+o9tS94ulq+yjq3psT39l13O4WQi3UyFJxy6XE57S3dL+AwCC+Mq8KW1ElYxtCcbt316wYVMsMwMukTy1eoM9v31N4fjiSD5783K77+gx4gl+0FcBY8dZr3l5JN/Ztd0F7WsKbZmP4URBd820W9HvtOCe9pO6n3/owWVAAHWNF+p35Y1ILg5ozdvpK1bbmZ3dhcuGlm7ss71FPnn2b32fP3d9r/1tV7e9fOVae3RMT4/jHvydeHIvNlK/fTaWNnBP5pfn1hba2rW5K7SKLeBcn7q+dX3s+tr1uet7af2JhjKrpf0HAAQRN6EqDDdV714ZHL+o056ypMuetmxVYY/+mctW218uXVU4n9/tA4/s6b6IGHvXw+KJvdhw2xMr1S6uD1xfuD5xfeP6yPWV6zPXd64Pf9TWUfbrl1oML9RdmC9AHSNtQkRxbTDxydniib3YmPTUS/RrErStdIe0/wCAIOImRAzYBpPVSntRdrYNsjfat5qn2YMbU+LJfbA4ZP9U4bO6z+w+u/sO9HGV6lyZdswXoI4RNyFilzY4XC2yD2fvt/3BedYGTR/E8zf9WDzBDxazbz5hh8/svoP7Lu470ddVpndlFkv7DwAIIm5CxAdt8KNwsX06M9O+E0zfIYluHxdPrd5zAC497aABP7f7Tu67ue9In1eH7j2lWzFfgDpG2oQIYyeGOXtD9in7RuacARPotnivOW0vqsIi4JJfTSl8tsE+/x+Cc+zM7MO8GqgG7SsTSPsPAAgibkJ1Hieq0OYyvxk0ce4cj199rB2fGiWe+N1nePLa40r+/B2Zy+1PVelHBxPRtYGnzO8xX4A6BkOVSyo3Z5+wb+9hun+w2Pji6YXZgOHDK5/4RwwfXngd0fvSr4f8+d13d22ABmX05yn9krT/AIAgmG/ljXdCmLNPZu8dcuLcObpfON3ec8mR9ocTx8JQjDUAACAASURBVMae+Cc3jLE3TD/Mrn72V5F9/ucydxdeg6DFCmtRmecwX4A6BtOtrOk2hitsa+a6yJLnDgvt5qXt3LtOslenD7FHHOhHlvTdz7omfaidd/dJhd8Rx2d3beLaBj1WtAB4Utp/AEAQDLdyhjs5XBlb8h9oZmD+3SfZBy4/2l5++kH2Z0dPskcf3GAP2m9c4d39qJHDC+H+2/2Z+zv3/7j/98Erji782+4XTqvY512YudY2hu0UARXSo6f0I5gvQB1DAVAZsx0fatucualiyTSp4drItRW6rMgMwP3S/gMAgmC0lSkA7s/+Vjy5JiVmZR+iAKjMDMBMzBegjqEAiN9op6tX7ZYqSKxJCddWrs3QZswFQKhvk/YfABAEk43XZPdX7bY7uEg8qSYtNmQutD9kUWDMBYC5HvMFqGMoAOI12Uezs8STaVLjkcz9zALEWwBcKe0/ACAIBUB8BnuUWmjfLeOgn3oP13auDdFoTBpV+lLMF6COwVzjKwCeyNwnnkSTHo9n7qUAiGsGQOnzpP0HAAShAIjHXKeoZYWLb6QTaNLDtaFrS3QaxwyAacJ8AeoYjDWeAmBG9jnx5FkrMUM9RwEQh05bzOnS/gMAglAAxFMAcOhPdAWAa0t0GsMrgFD/HPMFqGMw1uiN1V1s81bmbPEn51oJ15ZcFhRHoap/Iu0/ACAIBUD0xnqyUuJJs9bipDBkFiDqGQBljsV8AeoYCoDoCwD3zlo6YdZaXME6gOhfAaj84dL+AwCCUABEb6z3Zh8ST5i1Fq5N0WrEBUA2NwXzBahjMNXoC4DHs+z/j7oAeCx7HwVAxDpNtej9pP0HAAShAIi+AJiduVP8ibnW4oXsnRQAEeu0ocU0YL4AdQwFQPQFwIuZO8QTZq3F7MwdFABRzwCE+dHS/gMAglAARF8APJ25Rzxh1lo8meVI4MhnAFTuB5gvQB1DARB9AXAfiwAjLwBYBBi9Tn2lvyftPwAgCAVA9MZ6efZ58SfmWotL1WxeAUQ9A5Ax38J8AeoYCoDoC4BTwox4wqy1+KnKUgBErdXWjm9I+w8ACEIBEH0BMD7UdlNwgXjSrJXoC84vtClajVanXmvuq5gvQB2DqcYTbtuadOKslXg2czfJPxad6q9I+w8ACEIBEE8BcHb2FfHEWSsxTb1GARCDRlMq/yXMF6COoQCIpwBoCLXtzFwmnjyTHvngikJbotPoNTomu+ovpP0HAATBWOOL6epV8QSa9GjKziH5x6TPxqD9zzBfgDqGAiDeeC5zt3gSTWo8m+Xdf5za9IKuT0j7DwAIQgEQbwGwX9hu2zLXiiTQLeoC+86C6+xbS2baN1c8bl/XL9v+jvl2c2fW9nW12E2rl9i+1Uvs5q6Wwp+5v3s9N9u+ufxR+9biu+w7C661W7Lninz2BZnr7ORwJU//MWpzzLJlf4L5AtQxFADxx/6q3QbZG2NOmtMKCfvN5Y/Y/o55tndtzm7YsCGC6LGb1rbbfvOa/cPyh+y7rVfGnvybMzfZxnAFyT9mXTbOsntL+w8ACEIBUJlwC9luyT5h3wyie6Lekj2v8KTukvPG9Z0RJfzBo3edsa/rl+zbi263WzJnR/Z93sicY2/OPsmivwppcpi1e2G+AHUMBUBl47Bwsb0/+1vbO8SDgraoC+1bS++1mzsCu7FnfcWS/kCxsWet7c/PLRQiW7LnD+k7ubZwbXJouISn/grp0Av1u9LeAwDCUADIxIQwZ6eq+XZm9mH7WvZWqzMzConwzeAcuyVospuD8+za4BK7PHNlYSHhM21PF97Xuyl56aQ/YPR0275VC+1zC54sHITUnvmNXRtcXPgu7ju57+a+o/uur2ZvszOzj9hfquZCW6DDyurPU+Ytae8BAGEw3mTE9GVd8gm+yHCfVbq9iEEKgFC/Ie09ACAMRpmMZEEBIN8HtRSeMn3S3gMAwkgbEUEBgAYECoDQbJT2HgAQBvNNRhHCDIB8H9RSeEp3S3sPAAgjbUQEBQAakCgAzBpp7wEAYTDfZBQhzADI90EthRfqLmnvAQBhpI2IoABAAwIFgNJ5ae8BAGEw32QUIcwAyPdBLQUFAABQAFSBGVMAyLdvvQUFAABQAFSBGVMAyLdv3YXSHdgfQJ0jbkQEBQAaEBgHulPaewBAGMw3GUUIawDk+6CWgl0AAEABUAVmTAEg3771Fl5oVmF/AHWOtBERFABoQGAcKLNa2nsAQBjMNxlFCK8A5PugloKTAAGAAqAKzJgCQL596y0oAACAAqAKzJgCQL596y08ZdZifwB1jrQRERQAaEBiHOh10t4DAMJgvskoQlgDIN8HtRV6vbT3AIAw8kZEUACggUqPA0/pbmnvAQBhSMDJSD7MAMj3QU2F0j3S3gMAwogbEVFUG6SXddkNGzZEGut6egoR9c91n5V+rXptb5L2HgAQpgqMiCiiDU5e1BF5ol62rtsuX9cd+c89aVEHfVrtulbmTWnvAQBhxI2IKKoNDmrN256IE/Vrq9bZOavWR/oz3Wc8aEGefq1yXXuhflfaewBAGGkjIopvg8yaaJP1Ne2r7XUrV0f6M4M13fRpQnTdOMvuLe0/ACCItAkRxbfBtREm6/U9G+yRbR32qIUdtrsnugLg6vbV9GlCdL1PLvcxzBegjpE2IaL4NpjUYuyK9dEs2nswv/aDn/twx9pIfubK9T12cgt9mhRNj5m77NPS/gMAgkibEFH6dsCeCBK1W1Ow7WcevCBvc2UWFu4zTVu2iv5MkKa9oOvzmC9AHSNtQkTpbXBrbuivAtb27H6Vvttl4P5uqD/3lhxT/0nT8sRAf0HafwBAEGkTIobWBle2ry753b178neJfqCfeeKizpJfMbjP4BYS0o/J0/K4zMovY74AdYy0CRFDb4OfL+4srLovZsHfb/Nrd5j2HygObs3bhzrWFlVcNK9Zb3+2uJM+TKiOU9mOf5D2HwAQRNqEiPLaoCE09pdLuuy9Zo1Va9Zb3f3+6X7ugB+3z9/tHHCr/Uv9ue7fuH/rfob7We5nup/tfof7Xb9Y0ln43fRfctugIav/CfMFqGOkTYigDdCAjAbGqdy/SfsPAAiC+ZKA0UB9asDL5r+N+QLUMdImRNAGaEBIA0p/T9p/AEAQzJcEjAbqUwMNKvcDzBegjpE2IYI2QAMyGvBacmOl/QcABMF8ScBooD414IV6MuYLUMdImxBBG6ABGQ2kQnOotP8AgCCYLwkYDdStBo7HfAHqmCowIYI2QAMCGjhBqUuk/QcAhLDN6XEkH5IPGqhPDdyZeaTfzk9/HQMGqMPkb5vTf5A2IYI2QAMyGrg1+7i1zU1rKQIA6jD526AJ8yUBo4E61cB16nfWeQBFAEAdJn8KAHkTJmgDKQ1coZ57vwCgCACov+RPAUDyoQCpXw1coF76YwFAEQBQX8mfAkDehAnaQEoD09RrOxYAFAEA9ZP8KQBIPhQg9auB09S8XQsAigCA+kj+FADyJkzQBlIa+JnK7L4AoAgAqP3kTwFA8qEAqV8N/DhsGbgAoAgAqO3kTwEgb8IEbSClgSPDRXsuACgCAGo3+VMAkHwoQOpXAweFSwcvACgCAGoz+VMAyJswQRtIaWByuLK4AoAiAKD2kj8FAMmHAqR+NdAQavtuMJ0iAKAekz8FgLwJE7SBpAZ6gwtK8guODQaokeRPAUDyoQCpbw10Zi4r2TMoAgBqIPlTAMgbMEEbSGpgcXD1kHyDIgBAGDs/3WCbm94aavKnACD5UIDUtwaaMzcN2TtskF5jM9O/Ju2DAHVHuU/+FADy5kvQBtIamJ25syz/YCYAIKHJnxkAEpB0AiJk2+DR7KyyPYQiACCByZ8CgAREAq5vDczMPhKJj1AEACQs+VMAyBswQRtIauCG7FOReQlFAECCkj8FAMmHAqS+NXCpeiFSP6EIAEhI8qcAkDdggjaQ1MA09VrknkIRAJCA5L8lmEYCIgGhgTrWwM9VEH0BQBEAUN3J38XbwXRxAyJoAzQgp4HjVGs8BQBFAED1Jn8XbwbnYL4kYDRQxxoo+kpgigCA2kn+Ll4PzhU3III2QANyGpgQ5uyWmH2GNQEARWIz0/xyj/ctNvqC8zFfEjAaqHMNOB+I32/Sa+z86f+XRAAwADZI/5cN0m9UIvm72Ji5QNx8CNoADchqQGdmVMRvbHNa20z6iyQAgJ2w2XP/wgbpVZVK/i66g4swXxIwGqhzDajMDRXzHNucftnOmrU3CQBgO2zQdH8lk7+LtcHF4uZD0AZoQFYDL2TLvBCo5CKg6RTMH2Ardv60fSqd/F10Zi7DfEnAaKDONfBg9sFKe88mO++8z5EAAAqr/puekigAVmSuFDcfgjZAA7IauFE9WXHvsUH6LMwf6h4bpP+PbU5vkSgA2jLXYb4kYDRQ5xq4SL0oUQDkrU1/qO4TANQ37n2YRPJ30Zy5Sdx8CNoADchq4DQ1T8R/bDDtO9L+CyCKDdIPSxUAr2Rux3xJwGigzjUQ63HAe4rmpqmkH6hrbNC0WKoAeDZ7t7j5ELQBGpDVwP6qXWgGoOlmaf8FEMUG6V6pAuDR7CzMlwSMBtCAfTM4V8CD0k+SfqBusbPTH5NK/i7uyz6E+WP+aAAN2FXBZRIFQFbagwHEsMH1H7HNTe9JFQA3ZJ/C/DF/NIAGbFvmWgkPmkf6gbrGNqfXSRUAl6jZmD/mjwbQQGFBsMAMwMPS/gsgig3SrVIFwFlqDuaP+aMBNFBYD1RxD2puup70A3WNDZrulioAfqqymD/mjwbQgL01+7iEB50g7b8AotjmpiOlCoDD1SLMH/NHA2jAXpydLeBB6a+SfqCusXPSf26bm96SKAD2C9sxf8wfDaABO1XNr3Tyb5X2XoCqwAZNt1c6+W8OzsP4MX40gAYKGjgiXFTZAqC56Vhp3wWoCmxm+tdskH67kgNweeYqg/mRANEAGnAamBDm7LvB9Aol/7R2Z6BI+y5A1WCD9CUVrL6Xn9KaORjzx/zRABrYpoH1mYsr4z/zp02W9luAqsIum/EnNmhSFai+l1l1zpdSSh+N+WP+aAANbNPAwuCa/go8fNwq7bUAVYmde/ZXbJBeFXfyd7/LV2Ya5o/5owE0sE0D07OvnGmDpk0xFgDzbHjxJ6V9FqBqsfPTX7fNTV0xDL4F25K/w1PmZswf80cDaGCbBjylf2GD9HdtkO6O4cn/927Hk6y7AiQAmzn7yzZIz4/wyf9Rq9Kf2f53eMo8j/lj/mgADXygAWVmFPwnSH/VBum2CAuAu22Q/oSYoQIkDduW/qgNmtI2SL9RxsBbbzPpY6wdttfOP98LdRfmj/mjATTwRw3ohz7wnzmXftwGTReWd0ZJ4XXmQRU3T4BawU3bv79DoJRpuXTeBunTd37q38bIcPUnfaW3YP6YPxpAA9vNAAS7XZfUnL7KBuneEpJ/u21uOsW2pT9VEZMEqI+rg6eNtM1N59rm9G9t0PSaDdIrbdC01DanX7bNTffZoOlMm5n2H9amP7Snn+W16P8P48f40QAa2FEDet2A/jM7/THbnB5XmBUI0g/b5vScwn7+oGmxbW56yQbpmTZI/8rOn/btWAwQAKLBb8kfiPlj/mgADeygAaW3NM7JfxyfBahhfGWaMH/MHw2ggZ01kMp2/IO0PwFAjHhKz8T8MX80gAZ21oDXoodjvgA1jK9MBvPH/NEAGthFA8r8SNqfACAurN3LU6YP88f80QAa2GUGINRnYb4ANUpK5b+E8WP8aAAN7FYDytwo7VEAEBN+qPfF/DF/NIAGdl8A6KcxX4AaxQ/N8Zg/5o8G0MDuNOCFZqG0RwFATPihvg7zx/zRABrYbQGg9GbMF6BG8ZT5PeaP+aMBNDCQBlKt5rPSPgUAEZO29kOuwsf8MX80gAYGLACyK/8V8wWoMfxM/u8xfowfDaCBPWtAe9JeBQAR44e5SZg/5o8G0MAgGjge8wWoMbgDAOMn+aOBwTTgKX2etFcBQMT4oX6IBEACQANoYBAN3IX5AtQYvjLtmD/mjwbQwCAzAC9JexUAREjD4sV/6u77xvwxfzSABvZYAIQmh/kC1BC+0t/D+DF+NIAGBl0DEJq3G2fZvaU9CwAiwgvNcZg/5o8G0EAxGmjImC9ivgA1gh/qqzF/zB8NoIGiCoCw4zvSngUAEeEr/TLmj/mjATRQjAZSLXo/zBegRvCV7sH8MX80gAaK0YAXmp9JexYARMCYlo6/wvgxfjSABorVgBfqyzFfgBrAa8mNxfwxfzSABorWgDIPSPsWAESAr/QvMX/MHw2ggeI1oOdhvgA1gBeaOzF/zB8NoIHiXwGYVdK+BQAR4IcmxPwxfzSABoouAJR+r7Gt7aMYMECC2We2/bCvzB8wf8wfDaCB0jSgvyLtXwBQBg1Z/U8YP8aPBtBAqRpoaMn/D+YLkGAalGnE/DF/NIAGStVASumDpP0LAMrAU/oMzB/zRwNooFQNeKH5FeYLkGB8pW/H/DF/NIAGSteAvlravwCgDDyl52L+mD8aQAMla0DpRzFfgATDHQAYP8kfDQxRA0ravwBgiIzJrvoLzB/zRwNoYCga8JRZi/kCJBQvk/sPzB/zRwNoYGgFgH7vmCD4iLSPAcAQ8LK5KZg/5o8G0MBQNTB+QedfY74ACcQPzWmYP+aPBtDAUDWQUvn/J+1jADAE/FBfh/lj/mgADQxVA57KT8B8ARKIr/TTmD/mjwbQQBkaOF7axwBgCHjKLMH8MX80gAaGPgNgpmO+AEnD2r28UL+B+WP+aAANlFEA3CRtZQBQIhPmdX4O48f40QAaKFMDT2C+AAkjFea/jvlj/mgADZSpAU4DBEgaftaMxPwxfzSABsrRgKfMGmkvA4ASSYXmUMwf80cDaKC8AoDTAAESh6/MVMwf80cDaKBcDYxp6fgraT8DgBLwlL4C88f80QAaKFcDnAYIkDB8pe/F/DF/NIAGytWAFxpf2s8AoAQ8ZZ7H/DF/NIAGytZA1hyG+QIkCE+ZLOaP+aMBNBDBDMDPpP0MAErAC00O88f80QAaKLsAUPpczBcgQfih2YT5Y/5oAA2UrQGlr5X2MwAoksZZdm9f6S2YP+aPBtBABK8AZmG+AAmBewAwfRI/GohKA25BsbSnAUCRpLId/0ACIAGgATQQkQZCzBcgITRkzLcwf8wfDaCBaGYAdF7a0wCgSFIq933MH/NHA2ggGg3o1zFfgITQoHQK88f80QAaiEoDjXPyH5f2NQAoggZlGjF/zB8NoIGoNJBS+S9hvgAJwB3diflj/mgADUSmgdaOb0j7GgAUgR+a4zF/zB8NoIHoZgBy38d8ARKAH+ZOxfwxfzSABiLTQNaMl/Y1ACgCP9RnYv6YPxpAA1FpwMvmpmC+AAnAU/o8zB/zRwNoILICoEUfJe1rAFAEvtKXYv6YPxpAA5FpQJmfYr4ACcBXZgbmj/mjATQQmQZazOnSvgYAReCH5irMH/NHA2ggslcASp+L+QIkAHd/N+aP+aMBNBBhAXCFtK8BQBH4ytyI+WP+aAANRKiBqzBfgATgh/oWzB/zRwNoIDoN6OukfQ0AisBX+nbMH/NHA2ggulcA5ibMFyAB+KG5C/PH/NEAGoisAAj1bdK+BgBF4Cl9D+aP+aMBNBChBu7GfAESgBfq+zB/zB8NoIEIZwDuk/Y1ACgCXgFg/CR/NBCxBpgBAEgCnjI3kwBIAGgADUQ4A3CrtK8BQBH4ob4a88f80QAaiK4AMDdgvgAJwA/1ZZg/5o8G0ECEGuAgIIAk4If6HMwf80cDaCAyDSh9qbSvAUARNLSYkzF/zB8NoIHoNKDPxHwBEoDfkj8Q88f80QAaiHAG4ERpXwOAIvBDvS/mj/mjATQQYQFwMOYLkABSYf7rmD/mjwbQQFQaaFA6Je1rAFAEqVbzWcwf80cDaCAyDbTkvov5AiQET+luEgAJAA2ggSg0MKal46+kPQ0AisRT5veYP+aPBtBAuRrwQv3uPrPthzFfgITgK3075o/5owE0EMECwA5pPwOAEvCUPgPzx/zRABooewZAmd9jvgAJws+a8Zg/5o8G0ED5BYC+R9rPAKAEJgb6C5g/5o8G0EAEawDSmC9AwvBC3UUCIAGgATRQXgFgfijtZQBQIp7Sj2D+mD8aQAPlaGCcyv0b5guQMFgIiPGT/NFAme//3/OCrk9IexkAlIiXze9DAiABoAE0MPQtgGYxxguQQBrb2j7qK91PAiABoAE0MMQC4A5pHwOAIeIp/RTmj/mjATQwxB0AJ2G+AAnFC/XPMX/MHw2ggSEVAJncf0h7GAAMkVR25b9i/pg/GkADQ9j+9zYLAAESjq9MOwmABIAG0ECJGpgj7V0AUCaeMpdg/pg/GkADJW4BPBfzBUg47j0e5o/5owE0UIoGGrJmhLR3AUC5WLuXp3SeBEACQANooLinf/PWyHD1JzFfgBrAV2YG5o/5owE0UKQGZkt7FgBEhN/a8Q3MH/NHA2igyBmAUzBfgBrCUyZLAiABoAE0MJgGUq3mb6X9CgAixFf6RMwf80cDaGCQ1f+tGC9AjTFe5T7jhfoNEgAJAA2ggT1o4GxprwKAGPCVvh3zx/zRABoYSAPjVO7fMF+AGmR8S/5ffKW3kABIAGgADex6/K9uk/YoAIgRX5nnMH/MHw2ggd28//8F5gtQw6SyuXGYP+aPBtDATsn/vTEtHX8l7U8AEPfJgKFZSAIgAaABNLDd9P8zGC9AHeBlc1Mwf8wfDaCBD/b+q9xEaV8CgAqQtvZDbr8vCYAEgAbQgB8as89s+2HMF6BOaFCmEfPH/NEAGvCV/qW0HwFAJbF2Lz80igRAAkAD9asBdzjYhHmdn8N8AeoMP9SetAERtAEakCwAzPXSPgQAQnhKP4UBk4TRQP1pwAvN236ov4L5AtQp4zK5r71vBPKGRNAGaKCSGtC3SPsPAAjjKzMD4yX5ooH60YAX6nfHhp3/KO09ACBMqtV81lO6W9qUCNoADVSqADB3SvsOAFQJnsofjvmSgNFA7WvAU+YtP5P/e2nPAYAqwlf6aWlzImgDNBC7Bi6S9hoAqDLGZVZ+2VN6MwZMEkYDNaoBpXtGteX/XNprAKAKaWgxJ4ubFEEboIFYNOApfYK0xwBAFd8T4Cv9CgZMEkYDtaUBL9RtxwTBR6Q9BgCqmPELOv/aTRVKGxZBG6CByJ783/OV/p60twBAAvBCPRnzJQGjgdrQgBeaK6U9BQAShDspTNq4CNoADZSb/HVXY9D+Z9J+AgAJorFt7ac8ZZZgwCRhNJBcDXih8aW9BAASiNea+6oXml5pEyNoAzQwpOR/g7SHAECC8bNmvK/0FgyYJIwGkqQBvczN4kn7BwAkHD80Z8sbGkEboIGiNKDMHxrC3L9L+wYA1Mj5AJ4yj5GASEBooPo14A70kvYMAKghxsxd9mk/NKG0uRG0ARrY49P//cOs3UvaLwCgxmjImC/6odEYMEkYDVSfBjylW0aGqz8p7RMAUKM0ZPU/cVKgvNkTtMGOT/66Z8IC83fS/gAANU6qxfy3r8ybJCGSEBqoBg3odxpU7gfSvgAAdUJK5SZ6oXlb3vwI2qC+NZBS+mhpPwCAurwzQL8jbYAEbVCvGvCU+bW0DwBAndKgTCNFgHwiIOqxDfTV0uMfAOocP2sOK1w5Km6IBG1QHxrwlJ7pzueQHvsAAMNSoTmUmQD5xEDUfht4oX64sa3to9gOAFQNfqg9L9RvSBskQRvUrAaUuf+YIPiI9FgHANgFL5vfxw/NJnGjJGiDGtOAF+r79pltP4ztAEDVkmo13/SUWSttmARtUCsa8JS+h+QPAFWPtcP2WpS5+u7j1AJx4yRog6RrwFP6Chb8AUAikr8N0tfYoMluDs6zZ6i54gZK0AZJ1MD4UNsHsw/02fnpr0uPawCAopP/tng3mG6vzz4tbqYEbZAkDTSG7XZu5pb3x1Fz01qKAABIVPLfPh7NzrITwpy4sRK0QbVr4NBwiV0eXLXjGKIIAIAkJv9t0Za5zh4WLhY3WII2qFYNTFXzbU9w0e7HEEUAACQx+W+L3uACe5aaI260BG1QbRq4Sj1j3w2m7XkMUQQAQDVgbfpDNkjfVGzy3xZbgib7QPZB2xBqcdMlaANpDeyv2u0rmdtLGEPpNTYz/WvS4x8A6pRSn/x3F9nMjbwSIAHXdZyisrYzc1np44eZAABIavLfFv3Befay7AviRkzQBpXUgFsQe1v2cftOMH3o44ciAACSmvy3j1czt9kpahmJmERc8xo4WrXZhZlroxk7FAEAkOTkvy3c6uemLAsEpRMUEU8buDUvN2Sfsm8FZ0c7digCACDJyX/7mJe52R6uFpGISMY1o4GTlbJLMlfHN24oAgAg6cl/W7wenFt4WnLHoUqbN0EbDFUDPwxXFA7Bem+w7X0UAQBQbUgk/+1jReZK+zOVIQmThBOngenqVbs+c3FlxwwzAQBQC8l/W2wJptnns3fZQ9UScVMnaIPBNPBzFRROvRQbMxQBAFALyX/7eDM4p3CAkDs4hURMIq42Dfw4bC3sZpEeJxQBAFBTyX/76A4uKhybyvoA+aRHmMKC1acz91TmPT9FAADEm/ybbhQ3ryIiH1xROESIQoBELFGIHKUWFhb4vZWJeFtfpJFeY+dP/784JgAMig3SF8ibVmnRFlz7UEOYu9ML9bs8kVIMxK2BE7LqPbcm5d1yTvGrZDSntc2kv4j9AcCA2Ex6krhZlWxuTbe6S4nc5/dac1/1Q3OXH+p3KAQoBKLXgH7RD/Nj7Pz0f9qgaZO49ksrAl62s2btjf0BwK7Jf955n7NBujupyX97Jgb6C74yTb7SPRQCFALlaMBTps8LzfWp7Mp/3WG8NE/7ng3SfQkbL6dgfQCwawEQNF1ZC8l/exrb1n7KV+YYPzSLKAQoBErSgDKLf4JTiwAABUlJREFUfWWmplrNZwecMUteEbDJFfrYHwB8gA3Tf2mD9Bu1lPy3J23th7zQ+F5oHmedAIXAgE/7oen1lLnZV/p7xWoreUVA+iysDwA+wAZNp9Zq8h/g9cBUL9TLmRWgGPCV+YOnzGOp0Bw6Mlz9yaFoKllrAtL5csYPANQYtjk9px6S/45f2u6VUrnv+8rc4SvdTzFQP8WAmwXyQvOC16KPGq9yn4lETomaCZj2nSi+MwAkHBte/EkbpN+uq+S/E/vkch9zrwhcMeAWfUknKCKONtCvuyd9tyZkXFvuf8eho8QUAc1NU+P4/gCQMGww/V/qOfnvjBd0fSLVovfzQn0fMwMJL0aUafeVmdGQNSMa29o+Wgn9JOR1wM2VaAsAqHJs87SRVWBIVZH8d2af2fbDXmj+ywvNBb4ygXhCI/bYBp4ya7zQzCrs/FDmn4cJUf1FQPpJqbYBgCrCzm86RN6Qqi/57w4/1F/xQ3O8r/SjvCqQL0i80Kzylb7XU+bYhpaVVXXcbXW/DkhnpdsHAKoAOz99gLwhVX/y35nGWXZv95S59WnzDj80Rjoh1sGBPK+6KX23Yl/yCb8GZgLmSbcNAFQBtjn9/SowpEQl/4EYG3b+o6fyh/uhvs5Teq4X6jekE2fiQuktXmhyvjJP+spcnFL6INeubtfGsARSnUVA+mHpdgGAKsDdFCZvSMlP/nuaJXBJzFPmEk+Z5917avEkWwXhKfOWO4vBrcz3QnOhnzWHNWTMt9zpjcNqjKp7HdDcdL10mwBAFWCD6z9im9P94qZUY8l/T4yZu+zTqVbzzYYwf4Af6jO3XmA0zw/1+hp6ku/3lV7qh/p3Xmhu8FvM6a4QcqfspVT+S+50xmF1RJXNBJwg3R4AUCXY5qanxE2pTpJ/MWcSpFrN327dffBDX5mf+kpf6ooELzTP+qGe7xKrp8xad4pd/IncvOkp3V3YUhca9f57eP20H5q7PaWv8JT5dUOYO6JwjkJL7rvjVe5v3FZK6XasRqpnJiD9Vem2AIAqwWaaDif5J5PGOfmPu4Nt3FXIblbBhZfNf9vtfd8WXqgnNyjTWIgW07D93zW05P9n278rRJj/ukvi7hIctw1S+vvVGvJFQLpVug0AoIqwQfoTtjm9jid/gBp/HdDcdCx9DAA7YIP0r5j2B6jhmYDmtLaz0x+jjwFgB+yyGX9im9PLKvgkwjt/qGsqXgTMnzZZ+jsDQJViM9O/aZub3iL5A9TY64DmplvpUwDYIzZIT7HN6S08+QPUTBEwz936SX8CwKDYoOl429z0XvRGlL6GrX4Auxtz6e/aIN0dw5P/7+2c9J/T5gBQNLZ52njb3LQxosT/tg2aTqX5AfYw5oL0V22QbouwALjb7fChzQGgZGzm7C/boOmRMpP/fJtJf4vmByhizM259OM2aLqwvLU46VU2aDqI9gaAsrHBtP/eWgi8U9y0o1tDkH7VZtKTmPIHGMKYm3v2V2xz+iobpHtLSP7ttrnpFNuWrrn7FABAGBukP2/nNx1ig/R1Nkg/7u4Vt0GTsUHTAhs0/a6wta+56Vir0n8j/VkBagG3b982p8cVZgWC9MO2OT2nsJ8/aFpsm5teskF6ZuEMj/nTvi39WQEAAAAAAAAAAAAAAAAAAAAAAAAAAAAAAAAAAAAAAAAAAAAAAAAAAAAAAAAAAAAAAAAAAAAAAAAAAAAAAAAAAAAAAAAAAAAAAAAAAAAAAAAAAAAAAAAAAAAAAAAAAAAAAAAAAAAAAAAAAAAAAAAAAAAAAAAAAAAAAAAAAAAAAABgWE3x/wML7VDwUVRC+AAAAABJRU5ErkJggg==;" vertex="1" parent="1">
          <mxGeometry x="515.5" y="419.5" width="71" height="71" as="geometry" />
        </mxCell>
        <mxCell id="8pqZ917RF1C_p-31OUPB-10" style="edgeStyle=orthogonalEdgeStyle;rounded=0;orthogonalLoop=1;jettySize=auto;html=1;entryX=0;entryY=0.75;entryDx=0;entryDy=0;entryPerimeter=0;" edge="1" parent="1" source="8pqZ917RF1C_p-31OUPB-1" target="8pqZ917RF1C_p-31OUPB-2">
          <mxGeometry relative="1" as="geometry">
            <Array as="points">
              <mxPoint x="156" y="361" />
              <mxPoint x="229" y="361" />
              <mxPoint x="229" y="475" />
            </Array>
          </mxGeometry>
        </mxCell>
        <mxCell id="8pqZ917RF1C_p-31OUPB-11" style="edgeStyle=orthogonalEdgeStyle;rounded=0;orthogonalLoop=1;jettySize=auto;html=1;entryX=0;entryY=0.25;entryDx=0;entryDy=0;entryPerimeter=0;" edge="1" parent="1" source="8pqZ917RF1C_p-31OUPB-1" target="8pqZ917RF1C_p-31OUPB-3">
          <mxGeometry relative="1" as="geometry">
            <Array as="points">
              <mxPoint x="156" y="244" />
              <mxPoint x="235" y="244" />
              <mxPoint x="235" y="98" />
            </Array>
          </mxGeometry>
        </mxCell>
        <mxCell id="8pqZ917RF1C_p-31OUPB-17" value="Entity Producer" style="text;html=1;align=center;verticalAlign=middle;whiteSpace=wrap;rounded=0;fontStyle=3;fontSize=14;" vertex="1" parent="1">
          <mxGeometry x="5" y="280" width="118" height="30" as="geometry" />
        </mxCell>
        <mxCell id="8pqZ917RF1C_p-31OUPB-18" value="Publish messages&amp;nbsp;" style="text;html=1;align=center;verticalAlign=middle;whiteSpace=wrap;rounded=0;" vertex="1" parent="1">
          <mxGeometry x="114" y="426" width="125" height="30" as="geometry" />
        </mxCell>
        <mxCell id="8pqZ917RF1C_p-31OUPB-19" value="Publish total message count" style="text;html=1;align=center;verticalAlign=middle;whiteSpace=wrap;rounded=0;" vertex="1" parent="1">
          <mxGeometry x="102" y="142" width="125" height="30" as="geometry" />
        </mxCell>
        <mxCell id="8pqZ917RF1C_p-31OUPB-20" value="change stream" style="text;html=1;align=center;verticalAlign=middle;whiteSpace=wrap;rounded=0;" vertex="1" parent="1">
          <mxGeometry x="372" y="78" width="125" height="30" as="geometry" />
        </mxCell>
        <mxCell id="8pqZ917RF1C_p-31OUPB-21" value="consumer" style="text;html=1;align=center;verticalAlign=middle;whiteSpace=wrap;rounded=0;" vertex="1" parent="1">
          <mxGeometry x="600" y="76" width="125" height="30" as="geometry" />
        </mxCell>
        <mxCell id="8pqZ917RF1C_p-31OUPB-22" value="Migration Tracker" style="text;html=1;align=center;verticalAlign=middle;whiteSpace=wrap;rounded=0;fontStyle=3;fontSize=14;" vertex="1" parent="1">
          <mxGeometry x="690" y="166" width="125" height="30" as="geometry" />
        </mxCell>
        <mxCell id="8pqZ917RF1C_p-31OUPB-23" value="Message Consumer" style="text;html=1;align=center;verticalAlign=middle;whiteSpace=wrap;rounded=0;fontStyle=3;fontSize=14;" vertex="1" parent="1">
          <mxGeometry x="488.5" y="501" width="151.5" height="30" as="geometry" />
        </mxCell>
        <mxCell id="8pqZ917RF1C_p-31OUPB-24" value="&lt;div&gt;Decrement Counter&lt;/div&gt;" style="text;html=1;align=center;verticalAlign=middle;whiteSpace=wrap;rounded=0;" vertex="1" parent="1">
          <mxGeometry x="378" y="252" width="125" height="30" as="geometry" />
        </mxCell>
        <mxCell id="8pqZ917RF1C_p-31OUPB-25" value="SQS" style="text;html=1;align=center;verticalAlign=middle;whiteSpace=wrap;rounded=0;fontStyle=3;fontSize=16;" vertex="1" parent="1">
          <mxGeometry x="272" y="510" width="60" height="30" as="geometry" />
        </mxCell>
        <mxCell id="8pqZ917RF1C_p-31OUPB-26" value="DynamoDB" style="text;html=1;align=center;verticalAlign=middle;whiteSpace=wrap;rounded=0;fontStyle=3;fontSize=16;" vertex="1" parent="1">
          <mxGeometry x="265.5" y="39" width="105" height="30" as="geometry" />
        </mxCell>
        <mxCell id="8pqZ917RF1C_p-31OUPB-27" value="Kinesis Data Stream" style="text;html=1;align=center;verticalAlign=middle;whiteSpace=wrap;rounded=0;fontStyle=3;fontSize=16;" vertex="1" parent="1">
          <mxGeometry x="473" y="39" width="163" height="30" as="geometry" />
        </mxCell>
      </root>
    </mxGraphModel>
  </diagram>
</mxfile>
